/* XPM */
static char *bitcoin_32[] = {
/* columns rows colors chars-per-pixel */
"32 32 168 2 ",
"   c #15272F",
".  c #162830",
"X  c #172931",
"o  c #172932",
"O  c #182A32",
"+  c #192A32",
"@  c #182B33",
"#  c #192B33",
"$  c #1A2C34",
"%  c #1B2C34",
"&  c #1B2D35",
"*  c #1C2D35",
"=  c #1C2E36",
"-  c #1D2F36",
";  c #1E3038",
":  c #1F3038",
">  c #1F3139",
",  c #203139",
"<  c #20323A",
"1  c #21323A",
"2  c #22333A",
"3  c #22333B",
"4  c #22343B",
"5  c #22343C",
"6  c #23353D",
"7  c #24353D",
"8  c #25353D",
"9  c #25363D",
"0  c #25363E",
"q  c #25373F",
"w  c #26373F",
"e  c #27383F",
"r  c #28383F",
"t  c #273840",
"y  c #273941",
"u  c #283840",
"i  c #283941",
"p  c #293941",
"a  c #2A3A41",
"s  c #293A42",
"d  c #2A3C44",
"f  c #2B3C44",
"g  c #2C3C44",
"h  c #2C3D44",
"j  c #2C3D45",
"k  c #2C3D46",
"l  c #2D3E46",
"z  c #2D3F47",
"x  c #2E3F47",
"c  c #2E3F48",
"v  c #2F4048",
"b  c #2F4049",
"n  c #2F4149",
"m  c #304149",
"M  c #324148",
"N  c #334249",
"B  c #334349",
"V  c #30414A",
"C  c #31424A",
"Z  c #33434A",
"A  c #32434B",
"S  c #34434A",
"D  c #33444B",
"F  c #33444C",
"G  c #34454C",
"H  c #35454C",
"J  c #34454D",
"K  c #35454D",
"L  c #36464E",
"P  c #37474F",
"I  c #37484F",
"U  c #384850",
"Y  c #394951",
"T  c #3A4951",
"R  c #3B4A50",
"E  c #3D4C52",
"W  c #3C4C54",
"Q  c #3D4D54",
"!  c #3E4D55",
"~  c #3F4E56",
"^  c #3F4F56",
"/  c #404E54",
"(  c #414F55",
")  c #405057",
"_  c #425057",
"`  c #425158",
"'  c #445258",
"]  c #455359",
"[  c #44535A",
"{  c #44535B",
"}  c #45545B",
"|  c #47545A",
" . c #46555C",
".. c #48565C",
"X. c #48565D",
"o. c #4A575D",
"O. c #48575E",
"+. c #4B585D",
"@. c #4B585E",
"#. c #4C595F",
"$. c #4C5A60",
"%. c #4C5A61",
"&. c #4E5B61",
"*. c #4E5B62",
"=. c #4F5C62",
"-. c #4E5C63",
";. c #4F5D64",
":. c #536065",
">. c #566267",
",. c #56636A",
"<. c #56646A",
"1. c #57646A",
"2. c #58656B",
"3. c #58656C",
"4. c #5A666C",
"5. c #5B676C",
"6. c #5A676D",
"7. c #626E74",
"8. c #636F75",
"9. c #657177",
"0. c #667176",
"q. c #687377",
"w. c #687379",
"e. c #687479",
"r. c #69747A",
"t. c #6A757B",
"y. c #6C777C",
"u. c #6D787D",
"i. c #707B80",
"p. c #737E83",
"a. c #757F84",
"s. c #778287",
"d. c #788287",
"f. c #8B9397",
"g. c #91999C",
"h. c #959DA0",
"j. c #959DA1",
"k. c #979EA2",
"l. c #9DA4A7",
"z. c #9DA4A8",
"x. c #9EA5A8",
"c. c #A1A8AB",
"v. c #A1A9AC",
"b. c #A5ABAE",
"n. c #AFB5B7",
"m. c #B0B6B9",
"M. c #B1B6B9",
"N. c #B3B9BB",
"B. c #B4B9BB",
"V. c #BABEC1",
"C. c #C5C9CB",
"Z. c #C8CCCE",
"A. c #CBCED0",
"S. c #D1D4D5",
"D. c #D1D4D6",
"F. c #D5D8D9",
"G. c #E0E2E3",
"H. c #EDEEEF",
"J. c #EFF0F0",
"K. c #EFF0F1",
"L. c #F1F2F2",
"P. c #F4F5F5",
"I. c gray99",
"U. c #FCFCFD",
"Y. c #FEFEFE",
"T. c #FFFEFE",
"R. c white",
"E. c None",
/* pixels */
"E.E.E.E.E.E.E.E.E.E.E.E.E.E.E.E.E.E.E.E.E.E.E.E.E.E.E.E.E.E.E.E.",
"E.E.E.E.E.E.E.E.E.E.E.E.E.E.E.E.E.E.E.E.E.E.E.E.E.E.E.E.E.E.E.E.",
"E.E.E.E.E.E.E.E.E.E.E.E.E.E.E.E.E.E.E.E.E.E.E.E.E.E.E.E.E.E.E.E.",
"E.E.E.E.E.E.E.E.E.E.E.E.E.E.E.E.E.E.E.E.E.E.E.E.E.E.E.E.E.E.E.E.",
"E.E.E.E.E.E.E.E.E.E.E.E.E.E.E.E.E.E.E.E.E.E.E.E.E.E.E.E.E.E.E.E.",
"E.E.E.E.E.E.E.E.E.E.E.E.E.E.E.E.0.E 2 q #.E.E.E.E.E.E.E.E.E.E.E.",
"E.E.E.E.E.E.E.E.E.E.E.E.E.E.E.:.z * # # = ' E.E.E.E.E.E.E.E.E.E.",
"E.E.E.E.E.E.E.E.E.E.E.E.E.E.=.p 5 # X # X = :.E.E.E.E.E.E.E.E.E.",
"E.E.E.E.E.E.E.r.-._ ' ' ( S q p # # # # # # a E.E.E.E.E.E.E.E.E.",
"E.E.E.E.E.E.<.f # # . # # q p * # # # # # # % | E.E.E.E.E.E.E.E.",
"E.E.E.E.E.E.F = X = : q z q = X # # # # # # # q E.E.E.E.E.E.E.E.",
"E.E.E.E.E.r.m t p d p q * # X # # # # # # # # # =.E.E.E.E.E.E.E.",
"E.E.E.E.E.r.D m z : # # X # # # # # # # # # # . m E.w. .K d U s.",
"E.E.E.E.E.i.K m d # X # # # # # # # # # # # # # 2 4.v 2 # # # ( ",
"E.E.E.E.E.E.U m z # # # # # # # # # # # # # # # # | 2 # X #   ' ",
"E.E.E.E.E.E.! m z * # # # # # # # # # # . # # X 8 #.* X # # g E.",
"E.E.E.E.E.E.{ v v : @ X X X X X . #     X = p U | r # X : E E.E.",
"E.E.E.E.E.E.%.v v : X X X = : 2 r M | 0.f.n.l.o.* # 5 ( w.E.E.E.",
"E.E.E.E.E.E.m.v.z.h.h.z.b.m.V.C.S.G.L.T.H.h.m X 2 _ E.E.E.E.E.E.",
"E.E.E.E.E.E.J.T.T.T.T.T.T.T.T.T.T.T.P.M.@.= 2 K 0.E.E.E.E.E.E.E.",
"E.E.E.u.<. .v.T.T.T.T.T.T.T.T.T.J.B.6.5 2 f ` d.E.E.E.E.E.E.E.E.",
"E.4.^ F v f s.U.T.T.T.T.T.H.A.g.-.e 5 z m  .E.E.E.E.E.E.E.E.E.E.",
"4.m m m A c <.S.F.Z.N.h.i.;.F p f v m m ;.E.E.E.E.E.E.E.E.E.E.E.",
"8.A v A A v F ^ W P A v z v v m m v K 4.E.E.E.E.E.E.E.E.E.E.E.E.",
"E.4.K v v A v m m m m m A m m v F ' y.E.E.E.E.E.E.E.E.E.E.E.E.E.",
"E.E.t.{ F v m m m m m m m m K  .8.E.E.E.E.E.E.E.E.E.E.E.E.E.E.E.",
"E.E.E.E.t.;.` U K I K !  .<.i.E.E.E.E.E.E.E.E.E.E.E.E.E.E.E.E.E.",
"E.E.E.E.E.E.E.E.E.E.E.E.E.E.E.E.E.E.E.E.E.E.E.E.E.E.E.E.E.E.E.E.",
"E.E.E.E.E.E.E.E.E.E.E.E.E.E.E.E.E.E.E.E.E.E.E.E.E.E.E.E.E.E.E.E.",
"E.E.E.E.E.E.E.E.E.E.E.E.E.E.E.E.E.E.E.E.E.E.E.E.E.E.E.E.E.E.E.E.",
"E.E.E.E.E.E.E.E.E.E.E.E.E.E.E.E.E.E.E.E.E.E.E.E.E.E.E.E.E.E.E.E.",
"E.E.E.E.E.E.E.E.E.E.E.E.E.E.E.E.E.E.E.E.E.E.E.E.E.E.E.E.E.E.E.E."
};
