/* XPM */
static char * bitcoin_logo_doxygen_xpm[] = {
"64 64 368 2",
"  	c None",
". 	c #AEB0B1",
"+ 	c #999C9D",
"@ 	c #9D9FA0",
"# 	c #C0C1C2",
"$ 	c #CCCDCD",
"% 	c #8F9293",
"& 	c #495258",
"* 	c #28363D",
"= 	c #1B2C34",
"- 	c #1C2D34",
"; 	c #374146",
"> 	c #909294",
", 	c #ACADAF",
"' 	c #4E565A",
") 	c #2F3F47",
"! 	c #21323A",
"~ 	c #192B33",
"{ 	c #1F2F36",
"] 	c #6F7275",
"^ 	c #CCCCCD",
"/ 	c #959899",
"( 	c #323E44",
"_ 	c #2E3F47",
": 	c #26373F",
"< 	c #606568",
"[ 	c #CBCCCC",
"} 	c #8C8F91",
"| 	c #27353C",
"1 	c #2C3D45",
"2 	c #1B2D35",
"3 	c #6C6F72",
"4 	c #8E9192",
"5 	c #253339",
"6 	c #283941",
"7 	c #304149",
"8 	c #203139",
"9 	c #1E2E36",
"0 	c #8B8E8F",
"a 	c #8D9091",
"b 	c #26343A",
"c 	c #23343C",
"d 	c #1A2B33",
"e 	c #303B41",
"f 	c #B4B5B6",
"g 	c #B7BABB",
"h 	c #AEB1B2",
"i 	c #ADAFB0",
"j 	c #B0B1B2",
"k 	c #B2B4B4",
"l 	c #B3B4B5",
"m 	c #B2B4B5",
"n 	c #B0B2B3",
"o 	c #A6A8A9",
"p 	c #96999A",
"q 	c #5C6165",
"r 	c #202F37",
"s 	c #2F4048",
"t 	c #2E3E46",
"u 	c #1C2E36",
"v 	c #616669",
"w 	c #CDCFCF",
"x 	c #8A8E91",
"y 	c #4A555B",
"z 	c #37454C",
"A 	c #233239",
"B 	c #25333A",
"C 	c #27343B",
"D 	c #28353B",
"E 	c #27353B",
"F 	c #243239",
"G 	c #1A2C34",
"H 	c #223138",
"I 	c #A3A4A5",
"J 	c #C5C6C7",
"K 	c #5E676B",
"L 	c #32434B",
"M 	c #2B3C44",
"N 	c #1C2D35",
"O 	c #24353D",
"P 	c #52585C",
"Q 	c #697175",
"R 	c #31424A",
"S 	c #1D2F37",
"T 	c #293A42",
"U 	c #23353C",
"V 	c #A0A2A3",
"W 	c #ABAEAF",
"X 	c #36464D",
"Y 	c #25363D",
"Z 	c #20323A",
"` 	c #52595C",
" .	c #82878A",
"..	c #283940",
"+.	c #2E3F46",
"@.	c #314149",
"#.	c #213037",
"$.	c #A3A5A6",
"%.	c #636A6F",
"&.	c #1D2E36",
"*.	c #213239",
"=.	c #26363E",
"-.	c #2D3E46",
";.	c #1E2F37",
">.	c #5C6164",
",.	c #596166",
"'.	c #25363E",
").	c #1F3038",
"!.	c #29353C",
"~.	c #B8BABC",
"{.	c #A3A6A8",
"].	c #979B9D",
"^.	c #9A9EA0",
"/.	c #AEB0B2",
"(.	c #5D666A",
"_.	c #848789",
":.	c #C7C8C9",
"<.	c #989B9E",
"[.	c #596267",
"}.	c #3C4A51",
"|.	c #33434B",
"1.	c #37464D",
"2.	c #687073",
"3.	c #C6C8C9",
"4.	c #6C7376",
"5.	c #454D51",
"6.	c #DADADA",
"7.	c #8C9193",
"8.	c #475359",
"9.	c #27383F",
"0.	c #6B7275",
"a.	c #7F8487",
"b.	c #A7A9AA",
"c.	c #535C62",
"d.	c #2D3D45",
"e.	c #22323A",
"f.	c #B1B3B4",
"g.	c #939799",
"h.	c #5C6469",
"i.	c #9FA1A3",
"j.	c #A2A5A7",
"k.	c #65696C",
"l.	c #85898C",
"m.	c #AFB1B3",
"n.	c #37464E",
"o.	c #40484D",
"p.	c #949798",
"q.	c #333D43",
"r.	c #BEBFC0",
"s.	c #BDBFC0",
"t.	c #3E4B52",
"u.	c #3C4549",
"v.	c #989A9C",
"w.	c #1D2D35",
"x.	c #85888A",
"y.	c #465258",
"z.	c #1A2C33",
"A.	c #424A4F",
"B.	c #989A9B",
"C.	c #777B7D",
"D.	c #1D2E35",
"E.	c #6D7174",
"F.	c #535D62",
"G.	c #23343B",
"H.	c #696D70",
"I.	c #9EA0A1",
"J.	c #595E61",
"K.	c #2E3A40",
"L.	c #86898B",
"M.	c #70777A",
"N.	c #343E44",
"O.	c #4D5357",
"P.	c #8E9092",
"Q.	c #8E9193",
"R.	c #364045",
"S.	c #28353C",
"T.	c #8C9092",
"U.	c #2A3B43",
"V.	c #1E2E35",
"W.	c #2A373D",
"X.	c #3B4449",
"Y.	c #595E62",
"Z.	c #AAACAC",
"`.	c #C7C8C8",
" +	c #DCDDDD",
".+	c #CACBCC",
"++	c #6D7274",
"@+	c #2F3A40",
"#+	c #6F7376",
"$+	c #AFB1B2",
"%+	c #9FA2A4",
"&+	c #1F2E36",
"*+	c #2A363D",
"=+	c #4F5659",
"-+	c #767A7C",
";+	c #9A9D9E",
">+	c #B8BABB",
",+	c #D2D2D3",
"'+	c #E7E7E8",
")+	c #F6F6F7",
"!+	c #FCFCFC",
"~+	c #FDFDFD",
"{+	c #F3F3F3",
"]+	c #41494D",
"^+	c #3C454A",
"/+	c #858889",
"(+	c #B9BABB",
"_+	c #BABCBD",
":+	c #747A7D",
"<+	c #6C7377",
"[+	c #656D71",
"}+	c #5F676C",
"|+	c #5A6367",
"1+	c #576064",
"2+	c #50575B",
"3+	c #565C5F",
"4+	c #606567",
"5+	c #6A6F71",
"6+	c #75797B",
"7+	c #808385",
"8+	c #8B8D8F",
"9+	c #959799",
"0+	c #AAACAD",
"a+	c #B4B6B6",
"b+	c #C7C9C9",
"c+	c #D1D2D3",
"d+	c #DCDCDD",
"e+	c #E8E8E8",
"f+	c #F4F4F5",
"g+	c #FAFBFB",
"h+	c #FEFEFE",
"i+	c #FFFFFF",
"j+	c #D5D6D6",
"k+	c #727678",
"l+	c #233138",
"m+	c #919395",
"n+	c #C8C9CA",
"o+	c #FAFAFA",
"p+	c #F9F9FA",
"q+	c #F9F9F9",
"r+	c #F8F8F8",
"s+	c #F7F7F8",
"t+	c #F7F7F7",
"u+	c #FBFBFB",
"v+	c #EBEBEB",
"w+	c #9FA0A2",
"x+	c #394247",
"y+	c #2A3940",
"z+	c #767A7D",
"A+	c #C2C4C4",
"B+	c #F5F5F5",
"C+	c #BCBEBE",
"D+	c #585D60",
"E+	c #24343C",
"F+	c #445056",
"G+	c #9EA2A4",
"H+	c #E6E7E7",
"I+	c #CDCDCE",
"J+	c #717578",
"K+	c #26333A",
"L+	c #273840",
"M+	c #596367",
"N+	c #C1C3C4",
"O+	c #A8ABAC",
"P+	c #8C9093",
"Q+	c #61696E",
"R+	c #757B7F",
"S+	c #7F8284",
"T+	c #2E393F",
"U+	c #283840",
"V+	c #6E7478",
"W+	c #C8CACB",
"X+	c #B4B6B8",
"Y+	c #929698",
"Z+	c #5E666A",
"`+	c #414D54",
" @	c #34444C",
".@	c #4D575D",
"+@	c #ECEDED",
"@@	c #7D8082",
"#@	c #35454C",
"$@	c #7E8387",
"%@	c #989C9E",
"&@	c #576065",
"*@	c #3A4850",
"=@	c #32424A",
"-@	c #D7D8D9",
";@	c #E5E5E6",
">@	c #676B6E",
",@	c #2C3C44",
"'@	c #38474F",
")@	c #B3B6B7",
"!@	c #565F64",
"~@	c #BEC0C2",
"{@	c #E0E1E1",
"]@	c #BABBBC",
"^@	c #3E464B",
"/@	c #203037",
"(@	c #2B3B43",
"_@	c #3D4B52",
":@	c #999D9F",
"<@	c #C2C3C5",
"[@	c #49555B",
"}@	c #9FA3A5",
"|@	c #EEEFEF",
"1@	c #DADBDB",
"2@	c #BEC0C1",
"3@	c #62676A",
"4@	c #384247",
"5@	c #24343B",
"6@	c #445157",
"7@	c #A6A9AB",
"8@	c #A4A7A9",
"9@	c #72787C",
"0@	c #DFE0E0",
"a@	c #E0E1E2",
"b@	c #DBDCDC",
"c@	c #D2D4D4",
"d@	c #B9BBBC",
"e@	c #A6A8AA",
"f@	c #6A7073",
"g@	c #4A5358",
"h@	c #3A464C",
"i@	c #2F3F46",
"j@	c #515B60",
"k@	c #B4B6B7",
"l@	c #39484F",
"m@	c #434F56",
"n@	c #414E55",
"o@	c #3F4C53",
"p@	c #3B4950",
"q@	c #626A6F",
"r@	c #787E81",
"s@	c #7A8083",
"t@	c #CDCFD0",
"u@	c #CCCECF",
"v@	c #686F73",
"w@	c #32434A",
"x@	c #4B565C",
"y@	c #777D80",
"z@	c #36454D",
"A@	c #3E4C53",
"B@	c #C5C7C8",
"C@	c #7F8588",
"D@	c #404D54",
"E@	c #33444B",
"F@	c #82888B",
"G@	c #BCBEBF",
"H@	c #898D90",
"I@	c #414E54",
"J@	c #C7C9CA",
"K@	c #CFD0D1",
"L@	c #ABADAF",
"M@	c #868B8E",
"N@	c #566065",
"O@	c #424F55",
"P@	c #33444C",
"Q@	c #555F64",
"R@	c #A4A8AA",
"S@	c #B3B5B6",
"T@	c #A7AAAB",
"U@	c #9FA3A4",
"V@	c #9B9EA0",
"W@	c #9A9D9F",
"X@	c #9C9FA1",
"Y@	c #A1A4A6",
"Z@	c #A9ACAE",
"`@	c #B5B7B9",
"                                                                                                                                ",
"                                                                                                                                ",
"                                                                                                                                ",
"                                                                                                                                ",
"                                                                                                                                ",
"                                                                                                                                ",
"                                                                                                                                ",
"                                                                                                                                ",
"                                                                                                                                ",
"                                                                        . + @ #                                                 ",
"                                                                  $ % & * = - ; >                                               ",
"                                                                , ' ) ! ~ ~ ~ ~ { ] ^                                           ",
"                                                              / ( _ : ~ ~ ~ ~ ~ ~ = < [                                         ",
"                                                            } | 1 1 2 ~ ~ ~ ~ ~ ~ ~ = 3                                         ",
"                                                          4 5 6 7 8 ~ ~ ~ ~ ~ ~ ~ ~ ~ 9 0                                       ",
"                                                        a b c 7 6 d ~ ~ ~ ~ ~ ~ ~ ~ ~ ~ e f                                     ",
"                                g h i j k l m n i o p q r ! s t u ~ ~ ~ ~ ~ ~ ~ ~ ~ ~ ~ ~ v                                     ",
"                          w x y z * A B C D E b F 9 G ~ ! s s 8 ~ ~ ~ ~ ~ ~ ~ ~ ~ ~ ~ ~ ~ H I                                   ",
"                        J K L M N ~ ~ ~ ~ ~ ~ ~ ~ ~ G O s 7 c ~ ~ ~ ~ ~ ~ ~ ~ ~ ~ ~ ~ ~ ~ ~ P                                   ",
"                        Q R _ S ~ ~ ~ ~ ~ ~ ~ ~ ~ S T 7 7 U ~ ~ ~ ~ ~ ~ ~ ~ ~ ~ ~ ~ ~ ~ ~ ~ r V                                 ",
"                      W X R Y ~ ~ ~ ~ ~ ~ ~ = Z T s R _ ! ~ ~ ~ ~ ~ ~ ~ ~ ~ ~ ~ ~ ~ ~ ~ ~ ~ ~ `                                 ",
"                       .R s N ~ ~ ~ d 2 ! ..+.@.R 7 6 u ~ ~ ~ ~ ~ ~ ~ ~ ~ ~ ~ ~ ~ ~ ~ ~ ~ ~ ~ #.$.                              ",
"                      %.R _ &.u *.=.M s R R 7 -.: ;.~ ~ ~ ~ ~ ~ ~ ~ ~ ~ ~ ~ ~ ~ ~ ~ ~ ~ ~ ~ ~ ~ >.                              ",
"                      ,.R R s 7 R R R s M '.).G ~ ~ ~ ~ ~ ~ ~ ~ ~ ~ ~ ~ ~ ~ ~ ~ ~ ~ ~ ~ ~ ~ ~ ~ !.m             ~.{.].^./.      ",
"                      (.R R R R R 7 : N d ~ ~ ~ ~ ~ ~ ~ ~ ~ ~ ~ ~ ~ ~ ~ ~ ~ ~ ~ ~ ~ ~ ~ ~ ~ ~ ~ d _.      :.<.[.}.|.R R 1.2.3.  ",
"                      4.R R R R R 1 G ~ ~ ~ ~ ~ ~ ~ ~ ~ ~ ~ ~ ~ ~ ~ ~ ~ ~ ~ ~ ~ ~ ~ ~ ~ ~ ~ ~ ~ ~ 5.6.3.7.8.|.7 1 '.! 8 ! 9.0.  ",
"                      a.R R R R R T ~ ~ ~ ~ ~ ~ ~ ~ ~ ~ ~ ~ ~ ~ ~ ~ ~ ~ ~ ~ ~ ~ ~ ~ ~ ~ ~ ~ ~ ~ ~ C b.c.L R d.e.G ~ ~ ~ ~ ~ | f.",
"                      g.R R R R R T ~ ~ ~ ~ ~ ~ ~ ~ ~ ~ ~ ~ ~ ~ ~ ~ ~ ~ ~ ~ ~ ~ ~ ~ ~ ~ ~ ~ ~ ~ ~ G 4 h.s '.= ~ ~ ~ ~ ~ ~ ~ G i.",
"                      j.L R R R R M d ~ ~ ~ ~ ~ ~ ~ ~ ~ ~ ~ ~ ~ ~ ~ ~ ~ ~ ~ ~ ~ ~ ~ ~ ~ ~ ~ ~ ~ ~ ~ k.l.).~ ~ ~ ~ ~ ~ ~ ~ ~ - $.",
"                      m.n.R R R R -.G ~ ~ ~ ~ ~ ~ ~ ~ ~ ~ ~ ~ ~ ~ ~ ~ ~ ~ ~ ~ ~ ~ ~ ~ ~ ~ ~ ~ ~ ~ ~ o.p.- ~ ~ ~ ~ ~ ~ ~ ~ ~ q.r.",
"                      s.t.R R R R s 2 ~ ~ ~ ~ ~ ~ ~ ~ ~ ~ ~ ~ ~ ~ ~ ~ ~ ~ ~ ~ ~ ~ ~ ~ ~ ~ ~ ~ ~ ~ ~ u.v.#.~ ~ ~ ~ ~ ~ ~ ~ w.x.  ",
"                        y.R R R R 7 ).~ ~ ~ ~ ~ ~ ~ ~ ~ ~ ~ ~ ~ ~ ~ ~ ~ ~ ~ ~ ~ ~ ~ ~ ~ ~ ~ ~ ~ z.A.B.C.- ~ ~ ~ ~ ~ ~ ~ D.E.    ",
"                        F.R R R R R G.~ ~ ~ ~ ~ ~ ~ ~ ~ ~ ~ ~ ~ ~ ~ ~ ~ ~ ~ ~ ~ ~ ~ ~ ~ ~ ~ ~ r H.I.J.- ~ ~ ~ ~ ~ ~ ~ K.L.      ",
"                        M.R R R R R : ~ ~ ~ ~ ~ ~ ~ ~ ~ ~ ~ ~ ~ ~ ~ ~ ~ ~ ~ ~ ~ ~ ~ ~ = F N.O.P.Q.R.~ ~ ~ ~ ~ ~ ~ S.H.f         ",
"                        T.R R R R R U.~ ~ ~ ~ ~ ~ ~ ~ ~ ~ ~ ~ ~ ~ ~ ~ ~ ~ d V.W.X.Y.x.Z.`. +.+++#.~ ~ ~ ~ ~ G @+#+$+            ",
"                        %+L R R R R -.G ~ ~ ~ ~ ~ ~ ~ z.= - &+F *+e X.=+-+;+>+,+'+)+!+~+{+. ]+z.~ ~ ~ ~ w.^+/+(+                ",
"                        _+:+<+[+}+|+1+2+3+4+5+6+7+8+9+V 0+a+r.b+c+d+e+f+g+~+h+i+i+i+!+j+k+l+~ ~ ~ ~ G ^+m+n+                    ",
"                        !+o+p+q+r+s+t+t+r+q+o+g+u+!+~+~+h+h+i+i+i+i+i+i+i+i+i+i+h+v+w+x+d ~ ~ G u y+z+A+                        ",
"                          i+i+i+i+i+i+i+i+i+i+i+i+i+i+i+i+i+i+i+i+i+i+i+i+i+i+B+C+D+V.~ ~ N E+M F+G+                            ",
"                        H+h+i+i+i+i+i+i+i+i+i+i+i+i+i+i+i+i+i+i+i+i+i+i+i+r+I+J+K+~ ~ S L+_ R M+~.                              ",
"                N+O+P+Q+R+q+i+i+i+i+i+i+i+i+i+i+i+i+i+i+i+i+i+i+i+i+i+q+c+S+T+~ ~ &.U+s R |.V+W+                                ",
"          X+Y+Z+`+ @R R .@+@i+i+i+i+i+i+i+i+i+i+i+i+i+i+i+i+i+i+h+B+[ @@e z.G ).6 s R R #@$@                                    ",
"    w %@&@*@=@R R R R R t.-@i+i+i+i+i+i+i+i+i+i+i+i+i+i+i+h+o+;@f >@*+G u O ,@7 R R R '@7.                                      ",
"  )@!@|.R R R R R R R R  @~@i+i+i+i+i+i+i+i+i+i+i+i+~+t+{@]@S+^@/@S O (@s R R R R R _@:@                                        ",
"<@[@R R R R R R R R R R R }@~+i+i+i+i+h+h+!+q+|@1@2@v.3@4@5@c 6 d.7 R R R R R R R 6@7@                                          ",
"8@L R R R R R R R R R R R 9@0@a@b@c@b+d@e@T.f@g@h@i@1 +.s 7 R R R R R R R R R R j@k@                                            ",
")@l@R R R R R R R R R R R  @m@n@o@p@1.|.R R R R R R R R R R R R R R R R R R L q@N+                                              ",
"  r@L R R R R R R R R R R R R R R R R R R R R R R R R R R R R R R R R R R X s@t@                                                ",
"  u@v@L R R R R R R R R R R R R R R R R R R R R R R R R R R R R R R R w@x@}@                                                    ",
"    t@y@z@R R R R R R R R R R R R R R R R R R R R R R R R R R R R R A@ .B@                                                      ",
"        ^.8.=@R R R R R R R R R R R R R R R R R R R R R R R R R _@y@~.                                                          ",
"          <@C@D@=@R R R R R R R R R R R R R R R R R R R R E@y.F@d@                                                              ",
"              G@H@x@z@R R R R R R R R R R R R R R R  @I@v@}@J@                                                                  ",
"                  K@L@M@N@O@l@P@L =@=@=@L  @*@m@Q@ .R@N+                                                                        ",
"                          B@S@T@U@V@W@X@Y@Z@`@:.                                                                                ",
"                                                                                                                                ",
"                                                                                                                                ",
"                                                                                                                                ",
"                                                                                                                                ",
"                                                                                                                                ",
"                                                                                                                                ",
"                                                                                                                                ",
"                                                                                                                                ",
"                                                                                                                                "};
