/* XPM */
static char *bitcoin_16[] = {
/* columns rows colors chars-per-pixel */
"16 16 77 1 ",
"  c #15272F",
". c #162830",
"X c #172931",
"o c #182A32",
"O c #192B32",
"+ c #192B33",
"@ c #1A2C34",
"# c #203139",
"$ c #20323A",
"% c #22333B",
"& c #23343C",
"* c #23353D",
"= c #24363D",
"- c #25363E",
"; c #26373E",
": c #27373F",
"> c #283840",
", c #283941",
"< c #2A3A41",
"1 c #2B3B42",
"2 c #2C3D45",
"3 c #2D3D45",
"4 c #2D3E45",
"5 c #2D3E46",
"6 c #2D3E47",
"7 c #2F4047",
"8 c #2F4048",
"9 c #314048",
"0 c #314148",
"q c #304149",
"w c #314149",
"e c #334249",
"r c #334349",
"t c #34454D",
"y c #36454D",
"u c #36464E",
"i c #37474F",
"p c #39484F",
"a c #394950",
"s c #3B4A50",
"d c #3A4A52",
"f c #3C4B52",
"g c #3D4C53",
"h c #3F4E54",
"j c #415056",
"k c #415057",
"l c #415158",
"z c #425158",
"x c #425259",
"c c #46555B",
"v c #47565D",
"b c #49575E",
"n c #49585E",
"m c #4A585E",
"M c #4A585F",
"N c #4B5A61",
"B c #546168",
"V c #546268",
"C c #606C71",
"Z c #677379",
"A c #727D82",
"S c #798388",
"D c #899297",
"F c #8A9397",
"G c #C1C6C8",
"H c #C3C7C9",
"J c #C4C8CA",
"K c #C4C9CB",
"L c #CBCED0",
"P c #CBCFD1",
"I c #CED2D3",
"U c #D6D9DA",
"Y c #DFE1E2",
"T c #F1F2F3",
"R c #FEFEFE",
"E c white",
"W c None",
/* pixels */
"WWWWWWWWWWWWWWWW",
"WWWWWWWWWWWWWWWW",
"WWWWWWWWWpWWWWWW",
"WWWWWWWk=o=WWWWW",
"WWWb313=@XXeWWWW",
"WWW7%%%@X@X%WWWW",
"WWWu=@oo@oXohf1p",
"WWWa*XooXX Xe%+e",
"WWWl3#*,ecCb1=fW",
"WWWKHHLUYLSufWWW",
"WMlHEETIDleWWWWW",
"ve3ZDABi2aWWWWWW",
"Wlu836eaMWWWWWWW",
"WWWNvMBWWWWWWWWW",
"WWWWWWWWWWWWWWWW",
"WWWWWWWWWWWWWWWW"
};
