<?xml version="1.0" encoding="UTF-8" standalone="no"?>
<svg
   xmlns:dc="http://purl.org/dc/elements/1.1/"
   xmlns:cc="http://creativecommons.org/ns#"
   xmlns:rdf="http://www.w3.org/1999/02/22-rdf-syntax-ns#"
   xmlns:svg="http://www.w3.org/2000/svg"
   xmlns="http://www.w3.org/2000/svg"
   xmlns:sodipodi="http://sodipodi.sourceforge.net/DTD/sodipodi-0.dtd"
   xmlns:inkscape="http://www.inkscape.org/namespaces/inkscape"
   id="ic_blkc"
   width="24"
   height="24"
   viewBox="0 0 24 24"
   version="1.1"
   sodipodi:docname="ic-coin-blkc.svg"
   inkscape:version="1.0.2 (e86c870879, 2021-01-15)">
  <metadata
     id="metadata14">
    <rdf:RDF>
      <cc:Work
         rdf:about="">
        <dc:format>image/svg+xml</dc:format>
        <dc:type
           rdf:resource="http://purl.org/dc/dcmitype/StillImage" />
      </cc:Work>
    </rdf:RDF>
  </metadata>
  <sodipodi:namedview
     pagecolor="#ffffff"
     bordercolor="#666666"
     borderopacity="1"
     objecttolerance="10"
     gridtolerance="10"
     guidetolerance="10"
     inkscape:pageopacity="0"
     inkscape:pageshadow="2"
     inkscape:window-width="1668"
     inkscape:window-height="995"
     id="namedview12"
     showgrid="false"
     inkscape:zoom="25.131753"
     inkscape:cx="-3.0632392"
     inkscape:cy="8.1825463"
     inkscape:window-x="0"
     inkscape:window-y="0"
     inkscape:window-maximized="0"
     inkscape:current-layer="Group_8934"
     inkscape:document-rotation="0" />
  <defs
     id="defs4">
    <style
       type="text/css"
       id="style2">
            .cls-1{fill:#535353}.cls-2{fill:none}
        </style>
  </defs>
  <g
     id="Group_8935"
     data-name="Group 8935">
    <g
       id="Group_8934"
       data-name="Group 8934">
      <path
         id="Path_18928"
         d="M12 2a10 10 0 1 0 10 10A10 10 0 0 0 12 2zm0 19.25A9.25 9.25 0 1 1 21.25 12 9.25 9.25 0 0 1 12 21.25z"
         class="cls-1"
         data-name="Path 18928" />
      <path
         class="cls-1"
         d="m 10.396426,7.6052114 c 0,0 -0.7587879,0.034147 -1.4941831,0 C 8.2021922,7.5722542 7.8596775,7.7042433 7.5910989,7.8918908 7.3739126,8.0433414 7.0363514,8.3276298 6.911023,8.9127721 6.7856974,9.4979117 6.98103,10.745882 6.98103,10.745882 l 0.2863375,2.083078 0.4234458,2.235554 c 0,0 2.4774997,0.03518 4.7617147,-0.878479 2.284217,-0.913652 4.779303,-2.852794 4.779303,-2.852794 0,0 -0.0081,-0.0712 -0.0432,-0.369831 -0.035,-0.298634 -0.273189,-1.2930482 -0.694757,-2.1539395 -0.421568,-0.8608922 -0.870283,-1.8411357 -1.616607,-2.477499 -0.807448,-0.689123 -0.848941,-0.6751225 -1.73681,-0.433008 -0.14223,0.038764 -0.24092,0.058563 -1.000391,0.6389257 -0.19994,0.1529867 -0.864819,0.8124013 -0.864819,0.8124013 0,0 -0.255944,0.2106969 -0.878821,0.2549209 z"
         id="path20"
         style="fill:#31424a;stroke-width:0.0170745" />
      <path
         class="cls-2"
         d="m 7.557974,13.498619 c 0,0 -1.1499625,0.178085 -2.3096568,0.582067 -1.1596961,0.403981 -1.1069364,0.98417 -1.1069364,0.98417 0,0 -0.012812,0.386052 0.5622615,0.913652 0.5337472,0.489524 2.4520576,1.873406 5.5172577,1.300216 2.165379,-0.405005 3.742202,-1.604994 3.742202,-1.604994 1.513648,-1.203407 2.627583,-2.474084 3.86121,-3.000829 0.851501,-0.363686 1.650583,-0.702613 2.069762,-1.114618 0.278996,-0.274045 0.701075,-0.871822 0.398003,-1.512452 -0.292654,-0.6192911 -0.86533,-0.8458691 -1.679952,-0.6570247 -0.814619,0.1888425 -1.865379,0.8484287 -1.865379,0.8484287 z"
         id="path22"
         style="fill:#31424a;stroke:#192b33;stroke-width:0.0853721px;stroke-miterlimit:10" />
      <path
         class="cls-3"
         d="m 17.23183,10.77747 c 0,0 1.084395,-0.8161582 1.684051,-0.9049452 0.508475,-0.075299 0.802497,0.017073 0.922017,0.056174 0.534941,0.1707432 0.765618,0.6358512 0.138815,1.5262822 -0.194477,0.276265 -1.168914,0.764934 -1.601068,0.980072 -1.726908,0.859698 -1.555991,0.335683 -3.621826,1.414616 -0.560725,0.292997 -2.264923,0.951386 -3.637876,1.096179 -2.0262231,0.213771 -3.4247886,0.119519 -3.4247886,0.119519 0,0 3.0050996,-0.183891 3.9015046,-0.614679 0.896408,-0.430788 3.333099,-1.534137 3.860187,-2.002658 0.527087,-0.468522 1.778984,-1.67056 1.778984,-1.67056 z"
         id="path24"
         style="fill:#192b33;stroke-width:0.0170745" />
      <path
         class="cls-4"
         d="m 7.557974,13.498619 c 0,0 -1.1499625,0.178085 -2.3096568,0.582067 -1.1596961,0.403981 -1.1069364,0.98417 -1.1069364,0.98417 0,0 -0.012812,0.386052 0.5622615,0.913652 0.5337472,0.489524 2.4520576,1.873406 5.5172577,1.300216 2.165379,-0.405005 3.742202,-1.604994 3.742202,-1.604994 1.513648,-1.203407 2.627583,-2.474084 3.86121,-3.000829 0.851501,-0.363686 1.650583,-0.702613 2.069762,-1.114618 0.278996,-0.274045 0.701075,-0.871822 0.398003,-1.512452 -0.292654,-0.6192911 -0.86533,-0.8458691 -1.679952,-0.6570247 -0.814619,0.1888425 -1.865379,0.8484287 -1.865379,0.8484287 z"
         id="path26"
         style="fill:none;stroke:#ffffff;stroke-width:0.0853721px;stroke-miterlimit:10" />
      <path
         class="cls-3"
         d="M 8.4011092,7.8912071 C 8.0275216,8.135544 7.7609903,8.6254082 7.6462477,8.9248939 c -0.034147,0.09049 -0.082126,0.2818974 0.1149112,0.3706862 0.1970382,0.088785 2.3543931,-0.4821826 2.9501211,-0.8366477 1.021902,-0.6068245 1.524916,-1.5273076 1.759859,-1.8080108 0.589238,-0.7036358 1.274265,-0.8943589 1.274265,-0.8943589 0,0 -0.319462,0.00581 -0.769886,0.2019926 C 12.782405,6.0427323 12.565731,6.1832546 12.339153,6.338119 11.515484,6.9031115 11.615027,7.1747648 11.099381,7.4252474 10.587148,7.6738522 9.7629636,7.6028223 9.4882375,7.6195528 8.7898942,7.6620723 8.6401518,7.7342935 8.4011092,7.8912071 Z"
         id="path28"
         style="fill:#192b33;stroke-width:0.0170745" />
      <path
         class="cls-3"
         d="M 13.518655,5.9068184 C 13.377791,6.0084108 13.098111,6.2337947 12.531412,7.1833015 12.392255,7.4161985 11.886852,8.2835772 10.999154,8.8436181 10.271782,9.3024094 9.1452124,9.478616 8.957565,9.5723554 8.6985457,9.7016089 8.4986032,9.8467425 8.6264912,10.772858 c 0.1278871,0.926116 0.3512218,2.092471 0.3512218,2.092471 0,0 2.881991,0.01586 3.301338,-0.111839 0.419347,-0.127716 3.499916,-0.383318 3.795816,-0.588212 0.295901,-0.204894 1.156963,-0.831866 1.156963,-0.831866 0,0 -0.08059,-1.4905974 -1.235847,-3.5412349 C 15.810895,7.4634943 15.620345,7.1303704 15.370718,6.8264473 15.085916,6.4794943 14.732305,6.1707882 14.383304,5.9296992 13.98086,5.6515566 13.756842,5.7352206 13.518655,5.9068193 Z"
         id="path30"
         style="fill:#192b33;stroke-width:0.0170745" />
      <path
         class="cls-5"
         d="m 7.2673668,12.829131 0.4234458,2.235555 c 0,0 1.7557634,-0.04798 2.6226334,-0.223164 1.331804,-0.268752 2.416199,-0.743931 3.165597,-1.122472 1.209381,-0.610923 2.646534,-1.64034 2.646534,-1.64034 0,0 -2.637315,0.510184 -3.288703,0.579678 -0.651388,0.06949 -2.8930914,0.195842 -3.8588191,0.206427 -0.4280575,0.0046 -1.7106881,-0.03568 -1.7106881,-0.03568 z"
         id="path32"
         style="fill:#ffffff;stroke-width:0.0170745" />
      <path
         class="cls-4"
         d="m 10.396426,7.6052114 c 0,0 -0.7587879,0.034147 -1.4941831,0 C 8.2021922,7.5722542 7.8596775,7.7042433 7.5910989,7.8918908 7.3739126,8.0433414 7.0363514,8.3276298 6.911023,8.9127721 6.7856974,9.4979117 6.98103,10.745882 6.98103,10.745882 l 0.2863375,2.083078 0.4234458,2.235554 c 0,0 2.4774997,0.03518 4.7617147,-0.878479 2.284217,-0.913652 4.779303,-2.852794 4.779303,-2.852794 0,0 -0.0081,-0.0712 -0.0432,-0.369831 -0.035,-0.298634 -0.273189,-1.2930482 -0.694757,-2.1539395 -0.421568,-0.8608922 -0.870283,-1.8411357 -1.616607,-2.477499 -0.807448,-0.689123 -1.075858,-0.6254356 -1.551211,-0.494988 -1.057077,0.2902654 -1.825767,1.3596367 -2.050809,1.513307 -0.22504,0.1536703 -0.255944,0.2106969 -0.878821,0.2549209 z"
         id="path34"
         style="fill:none;stroke:#ffffff;stroke-width:0.0853721px;stroke-miterlimit:10" />
    </g>
  </g>
  <path
     id="Rectangle_4543"
     d="M0 0h24v24H0z"
     class="cls-2"
     data-name="Rectangle 4543" />
</svg>
