<?xml version="1.0" encoding="UTF-8" standalone="no"?>
<svg
   xmlns:dc="http://purl.org/dc/elements/1.1/"
   xmlns:cc="http://creativecommons.org/ns#"
   xmlns:rdf="http://www.w3.org/1999/02/22-rdf-syntax-ns#"
   xmlns:svg="http://www.w3.org/2000/svg"
   xmlns="http://www.w3.org/2000/svg"
   xmlns:sodipodi="http://sodipodi.sourceforge.net/DTD/sodipodi-0.dtd"
   xmlns:inkscape="http://www.inkscape.org/namespaces/inkscape"
   id="ic_dark_staking_on"
   width="100"
   height="100"
   viewBox="0 0 100 100"
   version="1.1"
   sodipodi:docname="img-empty-dark-staking-on.svg"
   inkscape:version="1.0.2 (e86c870879, 2021-01-15)">
  <metadata
     id="metadata20">
    <rdf:RDF>
      <cc:Work
         rdf:about="">
        <dc:format>image/svg+xml</dc:format>
        <dc:type
           rdf:resource="http://purl.org/dc/dcmitype/StillImage" />
      </cc:Work>
    </rdf:RDF>
  </metadata>
  <sodipodi:namedview
     pagecolor="#ffffff"
     bordercolor="#666666"
     borderopacity="1"
     objecttolerance="10"
     gridtolerance="10"
     guidetolerance="10"
     inkscape:pageopacity="0"
     inkscape:pageshadow="2"
     inkscape:window-width="1666"
     inkscape:window-height="918"
     id="namedview18"
     showgrid="false"
     inkscape:zoom="8.53"
     inkscape:cx="50"
     inkscape:cy="50"
     inkscape:window-x="0"
     inkscape:window-y="0"
     inkscape:window-maximized="0"
     inkscape:current-layer="Group_9052" />
  <defs
     id="defs4">
    <style
       type="text/css"
       id="style2">
            .cls-1{fill:#413d4a}.cls-2{fill:#9f9f9f}.cls-3{fill:none}
        </style>
  </defs>
  <g
     id="Group_9053"
     data-name="Group 9053">
    <g
       id="Group_9051"
       data-name="Group 9051">
      <ellipse
         id="Ellipse_640"
         cx="12"
         cy="4"
         class="cls-1"
         data-name="Ellipse 640"
         rx="12"
         ry="4"
         transform="translate(68 52)" />
      <ellipse
         id="Ellipse_641"
         cx="12"
         cy="4"
         class="cls-1"
         data-name="Ellipse 641"
         rx="12"
         ry="4"
         transform="translate(52 64)" />
      <path
         id="Rectangle_4706"
         d="M0 0h14v14H0z"
         class="cls-1"
         data-name="Rectangle 4706"
         transform="translate(32 24)" />
    </g>
    <g
       id="Group_9052"
       data-name="Group 9052">
      <path
         id="Rectangle_4707"
         d="M0 0h2v4H0z"
         class="cls-2"
         data-name="Rectangle 4707"
         transform="translate(12 60)" />
      <path
         id="Path_19001"
         d="M92.046 57.994A2.767 2.767 0 0 0 93 56c0-3.283-6.54-5-13-5s-13 1.717-13 5a2.767 2.767 0 0 0 .954 1.994 2.573 2.573 0 0 0 0 4 3.171 3.171 0 0 0-.774 1.151q-.58-.052-1.18-.085V39h5V23H52.644A8.993 8.993 0 1 0 39 11.9 8.994 8.994 0 1 0 25.356 23H7v16h5v17h2V39h50v24c-6.46 0-13 1.717-13 5a2.767 2.767 0 0 0 .954 1.994 2.573 2.573 0 0 0 0 4A3.325 3.325 0 0 0 51.226 75H14v-7h-2v9h39.23a3.369 3.369 0 0 0 .724.994 2.573 2.573 0 0 0 0 4 2.573 2.573 0 0 0 0 4A2.768 2.768 0 0 0 51 88c0 3.283 6.54 5 13 5 5.874 0 11.8-1.424 12.826-4.15 1.042.093 2.106.15 3.174.15 6.46 0 13-1.717 13-5a2.768 2.768 0 0 0-.954-2.006 2.573 2.573 0 0 0 0-4 2.573 2.573 0 0 0 0-4 2.573 2.573 0 0 0 0-4 2.573 2.573 0 0 0 0-4 2.573 2.573 0 0 0 0-4 2.573 2.573 0 0 0 0-4zM31 37H9V25h22zm-7-21a7 7 0 0 1 14 0v7h-7a7.008 7.008 0 0 1-7-7zm21 21H33V25h12zm-5-14v-7a7 7 0 1 1 7 7zm7 14V25h22v12H47zm4 39a2.311 2.311 0 0 0 .061.515A2.2 2.2 0 0 1 51 76zm13 15c-7.117 0-11-1.982-11-3 0-.241.247-.539.678-.849C56.179 88.37 60.1 89 64 89s7.821-.63 10.322-1.849c.431.31.678.608.678.849 0 1.018-3.883 3-11 3zm0-4c-7.117 0-11-1.982-11-3 0-.241.247-.539.678-.849C56.179 84.37 60.1 85 64 85s7.821-.63 10.322-1.849c.431.31.678.608.678.849 0 1.018-3.883 3-11 3zm0-4c-7.117 0-11-1.982-11-3 0-.241.247-.539.678-.849C56.179 80.37 60.1 81 64 81s7.821-.63 10.322-1.849c.431.31.678.608.678.849 0 1.018-3.883 3-11 3zm0-4c-7.117 0-11-1.982-11-3 0-.241.247-.539.678-.849C56.179 76.37 60.1 77 64 77s7.821-.63 10.322-1.849c.431.31.678.608.678.849 0 1.018-3.883 3-11 3zm0-4c-7.117 0-11-1.982-11-3 0-.241.247-.539.678-.849C56.179 72.37 60.1 73 64 73s7.821-.63 10.322-1.849c.431.31.678.608.678.849 0 1.018-3.883 3-11 3zm0-4c-7.117 0-11-1.982-11-3s3.883-3 11-3 11 1.982 11 3-3.883 3-11 3zm16 16c-1.207 0-2.3-.068-3.313-.168a3.446 3.446 0 0 0-.641-.838 3.219 3.219 0 0 0 .781-1.151c1.041.1 2.1.157 3.173.157 3.9 0 7.821-.63 10.322-1.849.431.31.678.608.678.849 0 1.018-3.883 3-11 3zm0-4c-1.207 0-2.3-.068-3.313-.168a3.446 3.446 0 0 0-.641-.838 3.219 3.219 0 0 0 .781-1.151c1.041.1 2.1.157 3.173.157 3.9 0 7.821-.63 10.322-1.849.431.31.678.608.678.849 0 1.018-3.883 3-11 3zm0-4c-1.207 0-2.3-.068-3.313-.168a3.446 3.446 0 0 0-.641-.838 3.219 3.219 0 0 0 .781-1.151c1.041.1 2.1.157 3.173.157 3.9 0 7.821-.63 10.322-1.849.431.31.678.608.678.849 0 1.018-3.883 3-11 3zm0-4c-1.207 0-2.3-.068-3.313-.168a3.446 3.446 0 0 0-.641-.838 3.219 3.219 0 0 0 .781-1.151c1.041.1 2.1.157 3.173.157 3.9 0 7.821-.63 10.322-1.849.431.31.678.608.678.849 0 1.018-3.883 3-11 3zm0-4c-1.207 0-2.3-.068-3.313-.168a3.446 3.446 0 0 0-.641-.838 3.219 3.219 0 0 0 .781-1.151c1.041.1 2.1.157 3.173.157 3.9 0 7.821-.63 10.322-1.849.431.31.678.608.678.849 0 1.018-3.883 3-11 3zm0-4c-1.2 0-2.287-.067-3.3-.166-.621-1.162-2.175-2.062-4.213-2.7A31.139 31.139 0 0 0 80 65c3.9 0 7.821-.63 10.322-1.849.431.31.678.608.678.849 0 1.018-3.883 3-11 3zm-10.632-3.583a2.722 2.722 0 0 1 .31-.266 13.563 13.563 0 0 0 1.826.7 26.483 26.483 0 0 0-2.136-.434zM80 63c-7.117 0-11-1.982-11-3 0-.241.247-.539.678-.849C72.179 60.37 76.1 61 80 61s7.821-.63 10.322-1.849c.431.31.678.608.678.849 0 1.018-3.883 3-11 3zm0-4c-7.117 0-11-1.982-11-3s3.883-3 11-3 11 1.982 11 3-3.883 3-11 3z"
         class="cls-2"
         data-name="Path 19001" />
      <path
         class="cls-4"
         d="m 33.986598,47.074445 c 0,0 -1.8572,0.08358 -3.657142,0 -1.713441,-0.08065 -2.551769,0.242387 -3.209148,0.701674 -0.531585,0.370686 -1.357796,1.066509 -1.66454,2.498695 -0.306751,1.432181 0.171342,4.486699 0.171342,4.486699 l 0.700839,5.098528 1.036421,5.471716 c 0,0 6.063901,0.08608 11.654727,-2.150155 5.59082,-2.236246 11.697769,-6.982469 11.697769,-6.982469 0,0 -0.02008,-0.174273 -0.105733,-0.9052 -0.08567,-0.730927 -0.668659,-3.164845 -1.700482,-5.271957 -1.031823,-2.107111 -2.130098,-4.506342 -3.956789,-6.063903 -1.976302,-1.686687 -2.63326,-1.530807 -3.796731,-1.211523 -2.587289,0.710448 -4.468728,3.327831 -5.019533,3.703954 -0.550813,0.376119 -0.626455,0.515702 -2.150998,0.623941 z"
         id="path34"
         style="fill:none;stroke:#ffffff;stroke-width:0.208956px;stroke-miterlimit:10" />
      <path
         class="cls-1"
         d="m 33.986598,47.074445 c 0,0 -1.8572,0.08358 -3.657142,0 -1.713441,-0.08065 -2.551769,0.242387 -3.209148,0.701674 -0.531585,0.370686 -1.357796,1.066509 -1.66454,2.498695 -0.306751,1.432181 0.171342,4.486699 0.171342,4.486699 l 0.700839,5.098528 1.036421,5.471716 c 0,0 6.063901,0.08608 11.654727,-2.150155 5.59082,-2.236246 11.697769,-6.982469 11.697769,-6.982469 0,0 -0.02008,-0.174273 -0.105733,-0.9052 -0.08567,-0.730927 -0.668659,-3.164845 -1.700482,-5.271957 -1.031823,-2.107111 -2.130098,-4.506342 -3.956789,-6.063903 -1.976302,-1.686687 -2.077856,-1.652418 -4.251,-1.059822 -0.348119,0.09486 -0.58967,0.143341 -2.448543,1.563828 -0.489374,0.374446 -2.116721,1.988425 -2.116721,1.988425 0,0 -0.626455,0.515702 -2.150998,0.623941 z"
         id="path20"
         style="fill:#31424a;stroke-width:0.0417912" />
      <path
         class="cls-2"
         d="m 27.039233,61.499091 c 0,0 -2.814632,0.435878 -5.653096,1.424662 -2.838452,0.988776 -2.709323,2.40884 -2.709323,2.40884 0,0 -0.03136,0.944901 1.376182,2.236248 1.306405,1.198154 6.001641,4.58533 13.503994,3.182398 5.299958,-0.991286 9.159371,-3.928371 9.159371,-3.928371 3.704785,-2.945444 6.431243,-6.055545 9.450657,-7.344798 2.084126,-0.890153 4.039955,-1.719711 5.065925,-2.728131 0.682869,-0.670746 1.71595,-2.133858 0.974157,-3.701861 -0.7163,-1.515771 -2.117979,-2.070338 -4.111838,-1.608126 -1.993858,0.46221 -4.565686,2.076606 -4.565686,2.076606 z"
         id="path22"
         style="fill:#31424a;stroke:#192b33;stroke-width:0.208956px;stroke-miterlimit:10" />
      <path
         class="cls-3"
         d="m 50.716866,54.838829 c 0,0 2.654153,-1.997621 4.121861,-2.214933 1.24454,-0.184302 1.964187,0.0418 2.256728,0.13749 1.309316,0.417912 1.873917,1.556307 0.33976,3.735713 -0.476,0.676185 -2.861023,1.872247 -3.918757,2.39882 -4.226763,2.104184 -3.808434,0.821609 -8.864746,3.462394 -1.372422,0.717137 -5.543604,2.328605 -8.904031,2.682998 -4.959361,0.523221 -8.382476,0.292534 -8.382476,0.292534 0,0 7.355249,-0.450088 9.549286,-1.504479 2.194037,-1.054391 8.158057,-3.754942 9.448147,-4.901688 1.290096,-1.146751 4.354228,-4.088849 4.354228,-4.088849 z"
         id="path24"
         style="fill:#192b33;stroke-width:0.0417912" />
      <path
         class="cls-4"
         d="m 27.039233,61.499091 c 0,0 -2.814632,0.435878 -5.653096,1.424662 -2.838452,0.988776 -2.709323,2.40884 -2.709323,2.40884 0,0 -0.03136,0.944901 1.376182,2.236248 1.306405,1.198154 6.001641,4.58533 13.503994,3.182398 5.299958,-0.991286 9.159371,-3.928371 9.159371,-3.928371 3.704785,-2.945444 6.431243,-6.055545 9.450657,-7.344798 2.084126,-0.890153 4.039955,-1.719711 5.065925,-2.728131 0.682869,-0.670746 1.71595,-2.133858 0.974157,-3.701861 -0.7163,-1.515771 -2.117979,-2.070338 -4.111838,-1.608126 -1.993858,0.46221 -4.565686,2.076606 -4.565686,2.076606 z"
         id="path26"
         style="fill:none;stroke:#ffffff;stroke-width:0.208956px;stroke-miterlimit:10" />
      <path
         class="cls-3"
         d="m 29.102885,47.774447 c -0.914391,0.598034 -1.566751,1.797018 -1.847591,2.530039 -0.08359,0.221494 -0.201015,0.689968 0.281255,0.907288 0.482268,0.217312 5.76259,-1.180185 7.220683,-2.04777 2.501202,-1.485258 3.73237,-3.738224 4.307414,-4.425268 1.442216,-1.722213 3.118874,-2.189025 3.118874,-2.189025 0,0 -0.781908,0.01422 -1.884362,0.494391 -0.472656,0.206031 -1.002989,0.549975 -1.557555,0.929018 -2.01601,1.382872 -1.772364,2.047769 -3.03446,2.660844 -1.253732,0.608478 -3.270995,0.434631 -3.943413,0.475584 -1.70926,0.104062 -2.07577,0.280839 -2.660845,0.664899 z"
         id="path28"
         style="fill:#192b33;stroke-width:0.0417912" />
      <path
         class="cls-3"
         d="m 41.628537,42.917477 c -0.344778,0.248659 -1.029319,0.8003 -2.416366,3.124308 -0.340598,0.570033 -1.577618,2.693025 -3.75034,4.063774 -1.780306,1.122928 -4.537688,1.554215 -4.996974,1.783645 -0.633975,0.316363 -1.123348,0.671588 -0.810329,2.938337 0.313014,2.266756 0.859645,5.12151 0.859645,5.12151 0,0 7.053931,0.03889 8.080322,-0.273728 1.02639,-0.312599 8.566356,-0.938216 9.290599,-1.439706 0.724241,-0.501497 2.831772,-2.036069 2.831772,-2.036069 0,0 -0.197256,-3.64837 -3.024847,-8.66749 -0.453018,-0.804481 -0.919409,-1.619827 -1.530395,-2.363707 -0.697074,-0.849199 -1.562572,-1.604781 -2.416783,-2.194874 -0.985018,-0.680782 -1.533315,-0.476006 -2.116304,-0.05599 z"
         id="path30"
         style="fill:#192b33;stroke-width:0.0417912" />
      <path
         class="cls-5"
         d="m 26.327949,59.860456 1.036421,5.471722 c 0,0 4.297386,-0.11743 6.419124,-0.546214 3.259715,-0.657795 5.91387,-1.820839 7.748086,-2.747354 2.960069,-1.495285 6.477635,-4.014875 6.477635,-4.014875 0,0 -6.455068,1.248717 -8.049399,1.418809 -1.594336,0.17009 -7.0811,0.479345 -9.444808,0.505255 -1.047706,0.01132 -4.187059,-0.08735 -4.187059,-0.08735 z"
         id="path32"
         style="fill:#ffffff;stroke-width:0.0417912" />
    </g>
  </g>
  <path
     id="Rectangle_4709"
     d="M0 0h100v100H0z"
     class="cls-3"
     data-name="Rectangle 4709" />
</svg>
