<?xml version="1.0" encoding="UTF-8" standalone="no"?>
<svg
   xmlns:dc="http://purl.org/dc/elements/1.1/"
   xmlns:cc="http://creativecommons.org/ns#"
   xmlns:rdf="http://www.w3.org/1999/02/22-rdf-syntax-ns#"
   xmlns:svg="http://www.w3.org/2000/svg"
   xmlns="http://www.w3.org/2000/svg"
   xmlns:sodipodi="http://sodipodi.sourceforge.net/DTD/sodipodi-0.dtd"
   xmlns:inkscape="http://www.inkscape.org/namespaces/inkscape"
   id="ic_empty_Dark_transactions"
   width="100"
   height="100"
   viewBox="0 0 100 100"
   version="1.1"
   sodipodi:docname="img-empty-dark-transactions.svg"
   inkscape:version="1.0.2 (e86c870879, 2021-01-15)">
  <metadata
     id="metadata24">
    <rdf:RDF>
      <cc:Work
         rdf:about="">
        <dc:format>image/svg+xml</dc:format>
        <dc:type
           rdf:resource="http://purl.org/dc/dcmitype/StillImage" />
      </cc:Work>
    </rdf:RDF>
  </metadata>
  <sodipodi:namedview
     pagecolor="#ffffff"
     bordercolor="#666666"
     borderopacity="1"
     objecttolerance="10"
     gridtolerance="10"
     guidetolerance="10"
     inkscape:pageopacity="0"
     inkscape:pageshadow="2"
     inkscape:window-width="1920"
     inkscape:window-height="1015"
     id="namedview22"
     showgrid="false"
     inkscape:zoom="6.0316208"
     inkscape:cx="39.663149"
     inkscape:cy="29.7207"
     inkscape:window-x="0"
     inkscape:window-y="0"
     inkscape:window-maximized="1"
     inkscape:current-layer="Group_9036" />
  <defs
     id="defs4">
    <style
       type="text/css"
       id="style2">
            .cls-1{fill:#413d4a}.cls-2{fill:#a09ea5}.cls-3{fill:none}
        </style>
  </defs>
  <g
     id="Group_9036"
     data-name="Group 9036">
    <path
       id="Path_18988"
       d="M50 26a24 24 0 1 0 24 24 24 24 0 0 0-24-24zm0 42a18 18 0 1 1 18-18 18 18 0 0 1-18 18z"
       class="cls-1"
       data-name="Path 18988"
       style="fill:#666666" />
    <g
       id="Group_9035"
       data-name="Group 9035">
      <path
         class="cls-4"
         d="m 47.031366,41.518563 c 0,0 -1.378154,0.06202 -2.71382,0 -1.271477,-0.05985 -1.893567,0.179866 -2.381382,0.520685 -0.394468,0.275071 -1.007566,0.791414 -1.235189,1.854182 -0.227628,1.062765 0.127146,3.329402 0.127146,3.329402 l 0.520065,3.783416 0.769087,4.060344 c 0,0 4.499781,0.06388 8.648512,-1.595545 4.148726,-1.65943 8.680451,-5.181414 8.680451,-5.181414 0,0 -0.0149,-0.129321 -0.07846,-0.671713 -0.06357,-0.542392 -0.496186,-2.348506 -1.261861,-3.912111 -0.765675,-1.563603 -1.580661,-3.343978 -2.936176,-4.499782 -1.466536,-1.251624 -1.954038,-1.135951 -2.817404,-0.899023 -1.919925,0.527195 -3.316066,2.469451 -3.724797,2.748557 -0.408736,0.279103 -0.464867,0.382682 -1.59617,0.463002 z"
         id="path34"
         style="fill:none;stroke:#ffffff;stroke-width:0.155058px;stroke-miterlimit:10" />
      <g
         id="Group_9034"
         data-name="Group 9034">
        <path
           id="Path_18990"
           d="M50 31a19 19 0 1 0 19 19 19.021 19.021 0 0 0-19-19zm0 36a17 17 0 1 1 17-17 17.019 17.019 0 0 1-17 17z"
           class="cls-2"
           data-name="Path 18990" />
        <path
           id="Rectangle_4693"
           d="M0 0h2v4H0z"
           class="cls-2"
           data-name="Rectangle 4693"
           transform="translate(83 56)" />
        <path
           id="Rectangle_4694"
           d="M0 0h2v8H0z"
           class="cls-2"
           data-name="Rectangle 4694"
           transform="translate(83 44)" />
        <path
           id="Rectangle_4695"
           d="M0 0h2v8H0z"
           class="cls-2"
           data-name="Rectangle 4695"
           transform="translate(15 48)" />
        <path
           id="Rectangle_4696"
           d="M0 0h2v4H0z"
           class="cls-2"
           data-name="Rectangle 4696"
           transform="translate(15 40)" />
        <path
           id="Path_18991"
           d="M95.162 71H85v-7h-2v9h7.838L76 90.456 61.162 73H68v-2h-4.461a24.989 24.989 0 0 0-22.4-44.374L24 6.456 4.838 29H15v7h2v-9H9.162L24 9.544 38.838 27H32v2h4.461a24.989 24.989 0 0 0 22.4 44.374L76 93.544zM27 50a23 23 0 1 1 23 23 23.026 23.026 0 0 1-23-23z"
           class="cls-2"
           data-name="Path 18991" />
      </g>
      <path
         class="cls-1"
         d="m 47.031366,41.518563 c 0,0 -1.378154,0.06202 -2.71382,0 -1.271477,-0.05985 -1.893567,0.179866 -2.381382,0.520685 -0.394468,0.275071 -1.007566,0.791414 -1.235189,1.854182 -0.227628,1.062765 0.127146,3.329402 0.127146,3.329402 l 0.520065,3.783416 0.769087,4.060344 c 0,0 4.499781,0.06388 8.648512,-1.595545 4.148726,-1.65943 8.680451,-5.181414 8.680451,-5.181414 0,0 -0.0149,-0.129321 -0.07846,-0.671713 -0.06357,-0.542392 -0.496186,-2.348506 -1.261861,-3.912111 -0.765675,-1.563603 -1.580661,-3.343978 -2.936176,-4.499782 -1.466536,-1.251624 -1.541895,-1.226194 -3.154499,-0.786452 -0.258325,0.07039 -0.437571,0.106368 -1.816967,1.160455 -0.363145,0.277861 -1.570735,1.475531 -1.570735,1.475531 0,0 -0.464867,0.382682 -1.59617,0.463002 z"
         id="path20"
         style="fill:#31424a;stroke-width:0.0310116" />
      <path
         class="cls-2"
         d="m 41.876002,52.222522 c 0,0 -2.088627,0.323448 -4.194939,1.057185 -2.106303,0.733732 -2.010481,1.787505 -2.010481,1.787505 0,0 -0.02327,0.701174 1.02121,1.659431 0.969431,0.889103 4.45358,3.402592 10.020779,2.361532 3.932889,-0.735594 6.796807,-2.915089 6.796807,-2.915089 2.749174,-2.185697 4.772371,-4.49358 7.012958,-5.450284 1.546548,-0.660547 2.997891,-1.276129 3.759223,-2.024438 0.50673,-0.497734 1.273338,-1.583451 0.722883,-2.747004 C 64.472904,44.826566 63.432774,44.415044 61.95321,44.758033 60.473647,45.101021 58.565195,46.299 58.565195,46.299 Z"
         id="path22"
         style="fill:#31424a;stroke:#192b33;stroke-width:0.155058px;stroke-miterlimit:10" />
      <path
         class="cls-3"
         d="m 59.446236,47.280205 c 0,0 1.969542,-1.482355 3.05867,-1.643614 0.923524,-0.136763 1.457545,0.03102 1.674628,0.102026 0.971592,0.310116 1.39056,1.154874 0.252123,2.772125 -0.353221,0.50177 -2.123052,1.38932 -2.907955,1.780069 -3.136513,1.561432 -2.826088,0.609684 -6.578177,2.569306 -1.01842,0.532159 -4.113689,1.727965 -6.607329,1.990946 -3.680145,0.388262 -6.220303,0.217078 -6.220303,0.217078 0,0 5.458039,-0.333992 7.086147,-1.116414 1.628108,-0.782422 6.053771,-2.786394 7.011096,-3.637349 0.957329,-0.850958 3.2311,-3.034173 3.2311,-3.034173 z"
         id="path24"
         style="fill:#192b33;stroke-width:0.0310116" />
      <path
         class="cls-4"
         d="m 41.876002,52.222522 c 0,0 -2.088627,0.323448 -4.194939,1.057185 -2.106303,0.733732 -2.010481,1.787505 -2.010481,1.787505 0,0 -0.02327,0.701174 1.02121,1.659431 0.969431,0.889103 4.45358,3.402592 10.020779,2.361532 3.932889,-0.735594 6.796807,-2.915089 6.796807,-2.915089 2.749174,-2.185697 4.772371,-4.49358 7.012958,-5.450284 1.546548,-0.660547 2.997891,-1.276129 3.759223,-2.024438 0.50673,-0.497734 1.273338,-1.583451 0.722883,-2.747004 C 64.472904,44.826566 63.432774,44.415044 61.95321,44.758033 60.473647,45.101021 58.565195,46.299 58.565195,46.299 Z"
         id="path26"
         style="fill:none;stroke:#ffffff;stroke-width:0.155058px;stroke-miterlimit:10" />
      <path
         class="cls-3"
         d="m 43.407356,42.038007 c -0.678533,0.443777 -1.162624,1.333496 -1.371024,1.877442 -0.06203,0.164362 -0.149165,0.511998 0.208708,0.673262 0.357872,0.161259 4.27619,-0.875768 5.358183,-1.519569 1.856043,-1.102151 2.769644,-2.773988 3.196362,-3.283816 1.070211,-1.277986 2.314393,-1.624389 2.314393,-1.624389 0,0 -0.580223,0.01055 -1.398311,0.366868 -0.350739,0.152888 -0.744278,0.408115 -1.1558,0.689388 -1.496001,1.026174 -1.315201,1.519568 -2.251752,1.974507 -0.930345,0.451527 -2.427276,0.322522 -2.926251,0.352912 -1.268374,0.07722 -1.540347,0.208399 -1.974508,0.493395 z"
         id="path28"
         style="fill:#192b33;stroke-width:0.0310116" />
      <path
         class="cls-3"
         d="m 52.702147,38.433842 c -0.255846,0.18452 -0.763817,0.593871 -1.79309,2.318425 -0.252744,0.422999 -1.170688,1.998387 -2.782979,3.015566 -1.321094,0.83328 -3.367238,1.153321 -3.708056,1.323572 -0.470448,0.234761 -0.833592,0.498359 -0.601313,2.180424 0.232275,1.68207 0.637908,3.80047 0.637908,3.80047 0,0 5.234443,0.02886 5.996087,-0.203123 0.761644,-0.231967 6.356754,-0.696213 6.894186,-1.068349 0.537431,-0.372141 2.101346,-1.510886 2.101346,-1.510886 0,0 -0.146376,-2.707311 -2.244619,-6.431801 C 56.86545,41.261166 56.51936,40.65613 56.065971,40.104126 55.5487,39.473969 54.906448,38.913282 54.272572,38.475397 53.541629,37.970216 53.13476,38.122172 52.702147,38.433841 Z"
         id="path30"
         style="fill:#192b33;stroke-width:0.0310116" />
      <path
         class="cls-5"
         d="m 41.348186,51.006556 0.769087,4.060348 c 0,0 3.18892,-0.08714 4.763378,-0.405324 2.418905,-0.488123 4.388449,-1.351172 5.749548,-2.038702 2.19655,-1.109592 4.806796,-2.97928 4.806796,-2.97928 0,0 -4.79005,0.926623 -5.97314,1.052842 -1.183094,0.126217 -5.254604,0.355703 -7.008618,0.37493 -0.777461,0.0084 -3.107051,-0.06482 -3.107051,-0.06482 z"
         id="path32"
         style="fill:#ffffff;stroke-width:0.0310116" />
    </g>
  </g>
  <path
     id="Rectangle_4697"
     d="M0 0h100v100H0z"
     class="cls-3"
     data-name="Rectangle 4697" />
</svg>
