<?xml version="1.0" encoding="UTF-8" standalone="no"?>
<svg
   xmlns:dc="http://purl.org/dc/elements/1.1/"
   xmlns:cc="http://creativecommons.org/ns#"
   xmlns:rdf="http://www.w3.org/1999/02/22-rdf-syntax-ns#"
   xmlns:svg="http://www.w3.org/2000/svg"
   xmlns="http://www.w3.org/2000/svg"
   xmlns:sodipodi="http://sodipodi.sourceforge.net/DTD/sodipodi-0.dtd"
   xmlns:inkscape="http://www.inkscape.org/namespaces/inkscape"
   id="ic_staking_on"
   width="100"
   height="100"
   viewBox="0 0 100 100"
   version="1.1"
   sodipodi:docname="img-empty-staking-on.svg"
   inkscape:version="1.0.2 (e86c870879, 2021-01-15)">
  <metadata
     id="metadata20">
    <rdf:RDF>
      <cc:Work
         rdf:about="">
        <dc:format>image/svg+xml</dc:format>
        <dc:type
           rdf:resource="http://purl.org/dc/dcmitype/StillImage" />
      </cc:Work>
    </rdf:RDF>
  </metadata>
  <sodipodi:namedview
     pagecolor="#ffffff"
     bordercolor="#666666"
     borderopacity="1"
     objecttolerance="10"
     gridtolerance="10"
     guidetolerance="10"
     inkscape:pageopacity="0"
     inkscape:pageshadow="2"
     inkscape:window-width="1920"
     inkscape:window-height="1015"
     id="namedview18"
     showgrid="false"
     inkscape:zoom="6.0316208"
     inkscape:cx="20.322802"
     inkscape:cy="107.42459"
     inkscape:window-x="0"
     inkscape:window-y="0"
     inkscape:window-maximized="1"
     inkscape:current-layer="Group_9017" />
  <defs
     id="defs4">
    <style
       type="text/css"
       id="style2">
            .cls-1{fill:#d6d6d6}.cls-2{fill:#666}.cls-3{fill:none}
        </style>
  </defs>
  <g
     id="Group_9018"
     data-name="Group 9018">
    <g
       id="Group_9016"
       data-name="Group 9016">
      <ellipse
         id="Ellipse_613"
         cx="12"
         cy="4"
         class="cls-1"
         data-name="Ellipse 613"
         rx="12"
         ry="4"
         transform="translate(68 52)" />
      <ellipse
         id="Ellipse_614"
         cx="12"
         cy="4"
         class="cls-1"
         data-name="Ellipse 614"
         rx="12"
         ry="4"
         transform="translate(52 64)" />
      <path
         id="Rectangle_4669"
         d="M0 0h14v14H0z"
         class="cls-1"
         data-name="Rectangle 4669"
         transform="translate(32 24)" />
    </g>
    <g
       id="Group_9017"
       data-name="Group 9017">
      <path
         id="Rectangle_4670"
         d="M0 0h2v4H0z"
         class="cls-2"
         data-name="Rectangle 4670"
         transform="translate(12 60)" />
      <path
         id="Path_18975"
         d="M92.046 57.994A2.767 2.767 0 0 0 93 56c0-3.283-6.54-5-13-5s-13 1.717-13 5a2.767 2.767 0 0 0 .954 1.994 2.573 2.573 0 0 0 0 4 3.171 3.171 0 0 0-.774 1.151q-.58-.052-1.18-.085V39h5V23H52.644A8.993 8.993 0 1 0 39 11.9 8.994 8.994 0 1 0 25.356 23H7v16h5v17h2V39h50v24c-6.46 0-13 1.717-13 5a2.767 2.767 0 0 0 .954 1.994 2.573 2.573 0 0 0 0 4A3.325 3.325 0 0 0 51.226 75H14v-7h-2v9h39.23a3.369 3.369 0 0 0 .724.994 2.573 2.573 0 0 0 0 4 2.573 2.573 0 0 0 0 4A2.768 2.768 0 0 0 51 88c0 3.283 6.54 5 13 5 5.874 0 11.8-1.424 12.826-4.15 1.042.093 2.106.15 3.174.15 6.46 0 13-1.717 13-5a2.768 2.768 0 0 0-.954-2.006 2.573 2.573 0 0 0 0-4 2.573 2.573 0 0 0 0-4 2.573 2.573 0 0 0 0-4 2.573 2.573 0 0 0 0-4 2.573 2.573 0 0 0 0-4 2.573 2.573 0 0 0 0-4zM31 37H9V25h22zm-7-21a7 7 0 0 1 14 0v7h-7a7.008 7.008 0 0 1-7-7zm21 21H33V25h12zm-5-14v-7a7 7 0 1 1 7 7zm7 14V25h22v12H47zm4 39a2.311 2.311 0 0 0 .061.515A2.2 2.2 0 0 1 51 76zm13 15c-7.117 0-11-1.982-11-3 0-.241.247-.539.678-.849C56.179 88.37 60.1 89 64 89s7.821-.63 10.322-1.849c.431.31.678.608.678.849 0 1.018-3.883 3-11 3zm0-4c-7.117 0-11-1.982-11-3 0-.241.247-.539.678-.849C56.179 84.37 60.1 85 64 85s7.821-.63 10.322-1.849c.431.31.678.608.678.849 0 1.018-3.883 3-11 3zm0-4c-7.117 0-11-1.982-11-3 0-.241.247-.539.678-.849C56.179 80.37 60.1 81 64 81s7.821-.63 10.322-1.849c.431.31.678.608.678.849 0 1.018-3.883 3-11 3zm0-4c-7.117 0-11-1.982-11-3 0-.241.247-.539.678-.849C56.179 76.37 60.1 77 64 77s7.821-.63 10.322-1.849c.431.31.678.608.678.849 0 1.018-3.883 3-11 3zm0-4c-7.117 0-11-1.982-11-3 0-.241.247-.539.678-.849C56.179 72.37 60.1 73 64 73s7.821-.63 10.322-1.849c.431.31.678.608.678.849 0 1.018-3.883 3-11 3zm0-4c-7.117 0-11-1.982-11-3s3.883-3 11-3 11 1.982 11 3-3.883 3-11 3zm16 16c-1.207 0-2.3-.068-3.313-.168a3.446 3.446 0 0 0-.641-.838 3.219 3.219 0 0 0 .781-1.151c1.041.1 2.1.157 3.173.157 3.9 0 7.821-.63 10.322-1.849.431.31.678.608.678.849 0 1.018-3.883 3-11 3zm0-4c-1.207 0-2.3-.068-3.313-.168a3.446 3.446 0 0 0-.641-.838 3.219 3.219 0 0 0 .781-1.151c1.041.1 2.1.157 3.173.157 3.9 0 7.821-.63 10.322-1.849.431.31.678.608.678.849 0 1.018-3.883 3-11 3zm0-4c-1.207 0-2.3-.068-3.313-.168a3.446 3.446 0 0 0-.641-.838 3.219 3.219 0 0 0 .781-1.151c1.041.1 2.1.157 3.173.157 3.9 0 7.821-.63 10.322-1.849.431.31.678.608.678.849 0 1.018-3.883 3-11 3zm0-4c-1.207 0-2.3-.068-3.313-.168a3.446 3.446 0 0 0-.641-.838 3.219 3.219 0 0 0 .781-1.151c1.041.1 2.1.157 3.173.157 3.9 0 7.821-.63 10.322-1.849.431.31.678.608.678.849 0 1.018-3.883 3-11 3zm0-4c-1.207 0-2.3-.068-3.313-.168a3.446 3.446 0 0 0-.641-.838 3.219 3.219 0 0 0 .781-1.151c1.041.1 2.1.157 3.173.157 3.9 0 7.821-.63 10.322-1.849.431.31.678.608.678.849 0 1.018-3.883 3-11 3zm0-4c-1.2 0-2.287-.067-3.3-.166-.621-1.162-2.175-2.062-4.213-2.7A31.139 31.139 0 0 0 80 65c3.9 0 7.821-.63 10.322-1.849.431.31.678.608.678.849 0 1.018-3.883 3-11 3zm-10.632-3.583a2.722 2.722 0 0 1 .31-.266 13.563 13.563 0 0 0 1.826.7 26.483 26.483 0 0 0-2.136-.434zM80 63c-7.117 0-11-1.982-11-3 0-.241.247-.539.678-.849C72.179 60.37 76.1 61 80 61s7.821-.63 10.322-1.849c.431.31.678.608.678.849 0 1.018-3.883 3-11 3zm0-4c-7.117 0-11-1.982-11-3s3.883-3 11-3 11 1.982 11 3-3.883 3-11 3z"
         class="cls-2"
         data-name="Path 18975" />
      <path
         class="cls-1"
         d="m 34.514699,46.424941 c 0,0 -1.908288,0.08588 -3.757749,0 -1.760575,-0.08287 -2.621963,0.249057 -3.297425,0.720978 -0.546203,0.380885 -1.395145,1.095849 -1.71033,2.56743 -0.315186,1.471581 0.176059,4.610121 0.176059,4.610121 l 0.720118,5.238777 1.064929,5.622237 c 0,0 6.23071,0.08846 11.975328,-2.209303 5.744617,-2.297761 12.019553,-7.174547 12.019553,-7.174547 0,0 -0.02062,-0.179063 -0.10864,-0.930096 -0.08803,-0.751034 -0.687054,-3.251905 -1.74726,-5.416982 -1.06021,-2.165072 -2.188694,-4.630305 -4.065632,-6.230704 -2.030669,-1.733094 -2.135017,-1.69788 -4.367937,-1.088982 -0.357698,0.09748 -0.605894,0.147288 -2.515901,1.606843 -0.502837,0.384753 -2.174949,2.043125 -2.174949,2.043125 0,0 -0.643688,0.529888 -2.210164,0.641103 z"
         id="path20"
         style="fill:#31424a;stroke-width:0.0429408" />
      <path
         class="cls-2"
         d="m 27.376221,61.246385 c 0,0 -2.892063,0.447873 -5.808597,1.463851 -2.91654,1.015979 -2.783852,2.475108 -2.783852,2.475108 0,0 -0.03219,0.970891 1.414038,2.297761 1.342332,1.231112 6.166725,4.711462 13.875459,3.26994 5.445747,-1.018555 9.411331,-4.036434 9.411331,-4.036434 3.8067,-3.026466 6.608156,-6.222119 9.710627,-7.546842 2.14146,-0.914639 4.151086,-1.767013 5.205283,-2.803175 0.701654,-0.689199 1.763149,-2.192557 1.00095,-3.803694 -0.736008,-1.557464 -2.176239,-2.127289 -4.224942,-1.652363 -2.04871,0.474925 -4.691281,2.133726 -4.691281,2.133726 z"
         id="path22"
         style="fill:#31424a;stroke:#192b33;stroke-width:0.214704px;stroke-miterlimit:10" />
      <path
         class="cls-3"
         d="m 51.705182,54.40291 c 0,0 2.72717,-2.052568 4.23525,-2.275857 1.278776,-0.18937 2.018218,0.04294 2.318803,0.14127 1.345336,0.42941 1.925463,1.599116 0.34911,3.83848 -0.489096,0.694782 -2.939728,1.923747 -4.02656,2.4648 -4.343031,2.162069 -3.913191,0.844216 -9.108597,3.557644 -1.410175,0.736864 -5.696098,2.392661 -9.148964,2.756799 -5.095783,0.537618 -8.613063,0.300585 -8.613063,0.300585 0,0 7.557575,-0.462471 9.81197,-1.545868 2.254389,-1.083396 8.382471,-3.858229 9.708053,-5.036525 1.325581,-1.178295 4.473998,-4.201328 4.473998,-4.201328 z"
         id="path24"
         style="fill:#192b33;stroke-width:0.0429408" />
      <path
         class="cls-4"
         d="m 27.376221,61.246385 c 0,0 -2.892063,0.447873 -5.808597,1.463851 -2.91654,1.015979 -2.783852,2.475108 -2.783852,2.475108 0,0 -0.03219,0.970891 1.414038,2.297761 1.342332,1.231112 6.166725,4.711462 13.875459,3.26994 5.445747,-1.018555 9.411331,-4.036434 9.411331,-4.036434 3.8067,-3.026466 6.608156,-6.222119 9.710627,-7.546842 2.14146,-0.914639 4.151086,-1.767013 5.205283,-2.803175 0.701654,-0.689199 1.763149,-2.192557 1.00095,-3.803694 -0.736008,-1.557464 -2.176239,-2.127289 -4.224942,-1.652363 -2.04871,0.474925 -4.691281,2.133726 -4.691281,2.133726 z"
         id="path26"
         style="fill:none;stroke:#ffffff;stroke-width:0.214704px;stroke-miterlimit:10" />
      <path
         class="cls-3"
         d="m 29.496637,47.1442 c -0.939543,0.614486 -1.609846,1.846457 -1.898411,2.599634 -0.08588,0.227589 -0.206545,0.708957 0.288989,0.932246 0.495539,0.223295 5.921107,-1.212647 7.419309,-2.104096 2.57001,-1.526119 3.835041,-3.841053 4.42591,-4.547001 1.481887,-1.769591 3.204669,-2.24924 3.204669,-2.24924 0,0 -0.803422,0.01459 -1.936199,0.507989 -0.485662,0.211699 -1.030581,0.565102 -1.600405,0.954574 -2.071462,1.420912 -1.821116,2.104102 -3.117927,2.734043 -1.288224,0.625218 -3.360975,0.446584 -4.051892,0.488666 -1.756281,0.106921 -2.132872,0.288559 -2.734043,0.683185 z"
         id="path28"
         style="fill:#192b33;stroke-width:0.0429408" />
      <path
         class="cls-3"
         d="m 42.366848,42.153624 c -0.354259,0.255499 -1.057631,0.822315 -2.482832,3.210252 -0.34997,0.585715 -1.621019,2.767107 -3.85351,4.175563 -1.829278,1.153821 -4.662509,1.596966 -5.13443,1.832712 -0.65141,0.325062 -1.154246,0.690057 -0.832618,3.019168 0.321624,2.329107 0.883292,5.262392 0.883292,5.262392 0,0 7.247974,0.03993 8.302601,-0.281261 1.054622,-0.321198 8.801999,-0.964022 9.546164,-1.479311 0.744165,-0.515289 2.909667,-2.092075 2.909667,-2.092075 0,0 -0.202681,-3.748732 -3.108054,-8.905921 C 48.13165,46.068534 47.652431,45.230758 47.024639,44.466414 46.308385,43.59386 45.41908,42.817489 44.541372,42.211166 43.529256,41.511661 42.965874,41.72207 42.366848,42.153624 Z"
         id="path30"
         style="fill:#192b33;stroke-width:0.0429408" />
      <path
         class="cls-5"
         d="m 26.645372,59.562677 1.064929,5.622237 c 0,0 4.415602,-0.120664 6.595704,-0.561237 3.349384,-0.675887 6.076548,-1.87093 7.961225,-2.822927 3.041495,-1.536421 6.65582,-4.125321 6.65582,-4.125321 0,0 -6.632634,1.283071 -8.270826,1.45784 -1.638189,0.174769 -7.275886,0.492531 -9.704619,0.519154 -1.076526,0.0116 -4.302233,-0.08975 -4.302233,-0.08975 z"
         id="path32"
         style="fill:#ffffff;stroke-width:0.0429408" />
      <path
         class="cls-4"
         d="m 34.514699,46.424941 c 0,0 -1.908288,0.08588 -3.757749,0 -1.760575,-0.08287 -2.621963,0.249057 -3.297425,0.720978 -0.546203,0.380885 -1.395145,1.095849 -1.71033,2.56743 -0.315186,1.471581 0.176059,4.610121 0.176059,4.610121 l 0.720118,5.238777 1.064929,5.622237 c 0,0 6.23071,0.08846 11.975328,-2.209303 5.744617,-2.297761 12.019553,-7.174547 12.019553,-7.174547 0,0 -0.02062,-0.179063 -0.10864,-0.930096 -0.08803,-0.751034 -0.687054,-3.251905 -1.74726,-5.416982 -1.06021,-2.165072 -2.188694,-4.630305 -4.065632,-6.230704 -2.030669,-1.733094 -2.705701,-1.572925 -3.901174,-1.244858 -2.658462,0.729995 -4.591657,3.419376 -5.157613,3.805844 -0.565962,0.386469 -0.643688,0.529888 -2.210164,0.641103 z"
         id="path34"
         style="fill:none;stroke:#ffffff;stroke-width:0.214704px;stroke-miterlimit:10" />
    </g>
  </g>
  <path
     id="Rectangle_4672"
     d="M0 0h100v100H0z"
     class="cls-3"
     data-name="Rectangle 4672" />
</svg>
