<?xml version="1.0" encoding="UTF-8" standalone="no"?>
<svg
   xmlns:dc="http://purl.org/dc/elements/1.1/"
   xmlns:cc="http://creativecommons.org/ns#"
   xmlns:rdf="http://www.w3.org/1999/02/22-rdf-syntax-ns#"
   xmlns:svg="http://www.w3.org/2000/svg"
   xmlns="http://www.w3.org/2000/svg"
   xmlns:sodipodi="http://sodipodi.sourceforge.net/DTD/sodipodi-0.dtd"
   xmlns:inkscape="http://www.inkscape.org/namespaces/inkscape"
   id="ic_empty_transactions"
   width="100"
   height="100"
   viewBox="0 0 100 100"
   version="1.1"
   sodipodi:docname="img-empty-transactions.svg"
   inkscape:version="1.0.2 (e86c870879, 2021-01-15)">
  <metadata
     id="metadata24">
    <rdf:RDF>
      <cc:Work
         rdf:about="">
        <dc:format>image/svg+xml</dc:format>
        <dc:type
           rdf:resource="http://purl.org/dc/dcmitype/StillImage" />
      </cc:Work>
    </rdf:RDF>
  </metadata>
  <sodipodi:namedview
     pagecolor="#ffffff"
     bordercolor="#666666"
     borderopacity="1"
     objecttolerance="10"
     gridtolerance="10"
     guidetolerance="10"
     inkscape:pageopacity="0"
     inkscape:pageshadow="2"
     inkscape:window-width="1920"
     inkscape:window-height="1015"
     id="namedview22"
     showgrid="false"
     inkscape:zoom="6.0316208"
     inkscape:cx="10.091609"
     inkscape:cy="53.966491"
     inkscape:window-x="0"
     inkscape:window-y="0"
     inkscape:window-maximized="1"
     inkscape:current-layer="Group_9014" />
  <defs
     id="defs4">
    <style
       type="text/css"
       id="style2">
            .cls-1{fill:#d6d6d6}.cls-2{fill:#666}.cls-3{fill:none}
        </style>
  </defs>
  <g
     id="Group_9015"
     data-name="Group 9015">
    <path
       id="Path_18970"
       d="M50 26a24 24 0 1 0 24 24 24 24 0 0 0-24-24zm0 42a18 18 0 1 1 18-18 18 18 0 0 1-18 18z"
       class="cls-1"
       data-name="Path 18970" />
    <g
       id="Group_9014"
       data-name="Group 9014">
      <path
         class="cls-4"
         d="m 47.034604,42.552103 c 0,0 -1.381991,0.0622 -2.721383,0 -1.275019,-0.06002 -1.898844,0.180368 -2.388013,0.522138 -0.39557,0.275838 -1.010377,0.793621 -1.238635,1.859346 -0.228259,1.065732 0.127503,3.338679 0.127503,3.338679 l 0.521513,3.793961 0.771229,4.071658 c 0,0 4.512319,0.06406 8.672607,-1.59999 4.160289,-1.664056 8.704641,-5.195854 8.704641,-5.195854 0,0 -0.01492,-0.12968 -0.07868,-0.673586 -0.06375,-0.5439 -0.497569,-2.355049 -1.265377,-3.923011 -0.76781,-1.567957 -1.585063,-3.353295 -2.944357,-4.512319 -1.470626,-1.255112 -1.959489,-1.139117 -2.825258,-0.901528 -1.925272,0.528666 -3.325305,2.47633 -3.735179,2.756212 -0.409869,0.279882 -0.466154,0.383752 -1.600614,0.464294 z"
         id="path34"
         style="fill:none;stroke:#ffffff;stroke-width:0.15549px;stroke-miterlimit:10" />
      <g
         id="Group_9013"
         data-name="Group 9013">
        <path
           id="Path_18972"
           d="M50 31a19 19 0 1 0 19 19 19.021 19.021 0 0 0-19-19zm0 36a17 17 0 1 1 17-17 17.019 17.019 0 0 1-17 17z"
           class="cls-2"
           data-name="Path 18972" />
        <path
           id="Rectangle_4664"
           d="M0 0h2v4H0z"
           class="cls-2"
           data-name="Rectangle 4664"
           transform="translate(83 56)" />
        <path
           id="Rectangle_4665"
           d="M0 0h2v8H0z"
           class="cls-2"
           data-name="Rectangle 4665"
           transform="translate(83 44)" />
        <path
           id="Rectangle_4666"
           d="M0 0h2v8H0z"
           class="cls-2"
           data-name="Rectangle 4666"
           transform="translate(15 48)" />
        <path
           id="Rectangle_4667"
           d="M0 0h2v4H0z"
           class="cls-2"
           data-name="Rectangle 4667"
           transform="translate(15 40)" />
        <path
           id="Path_18973"
           d="M95.162 71H85v-7h-2v9h7.838L76 90.456 61.162 73H68v-2h-4.461a24.989 24.989 0 0 0-22.4-44.374L24 6.456 4.838 29H15v7h2v-9H9.162L24 9.544 38.838 27H32v2h4.461a24.989 24.989 0 0 0 22.4 44.374L76 93.544zM27 50a23 23 0 1 1 23 23 23.026 23.026 0 0 1-23-23z"
           class="cls-2"
           data-name="Path 18973" />
      </g>
      <path
         class="cls-1"
         d="m 47.034604,42.552103 c 0,0 -1.381991,0.0622 -2.721383,0 -1.275019,-0.06002 -1.898844,0.180368 -2.388013,0.522138 -0.39557,0.275838 -1.010377,0.793621 -1.238635,1.859346 -0.228259,1.065732 0.127503,3.338679 0.127503,3.338679 l 0.521513,3.793961 0.771229,4.071658 c 0,0 4.512319,0.06406 8.672607,-1.59999 4.160289,-1.664056 8.704641,-5.195854 8.704641,-5.195854 0,0 -0.01492,-0.12968 -0.07868,-0.673586 -0.06375,-0.5439 -0.497569,-2.355049 -1.265377,-3.923011 -0.76781,-1.567957 -1.585063,-3.353295 -2.944357,-4.512319 -1.470626,-1.255112 -1.546194,-1.229613 -3.16329,-0.788646 -0.259045,0.0706 -0.438794,0.106666 -1.822033,1.163691 -0.364156,0.278635 -1.575114,1.479639 -1.575114,1.479639 0,0 -0.466154,0.383752 -1.600614,0.464294 z"
         id="path20"
         style="fill:#31424a;stroke-width:0.031098" />
      <path
         class="cls-2"
         d="m 41.864874,53.285885 c 0,0 -2.094451,0.324353 -4.206625,1.060134 -2.112175,0.735776 -2.016081,1.79249 -2.016081,1.79249 0,0 -0.02331,0.703124 1.024057,1.664051 0.972122,0.89158 4.465981,3.412075 10.048694,2.36811 3.943849,-0.737641 6.81575,-2.923212 6.81575,-2.923212 2.756836,-2.191787 4.785666,-4.506096 7.032496,-5.465469 1.550857,-0.662386 3.006244,-1.279682 3.769703,-2.030078 0.50814,-0.499123 1.276879,-1.587864 0.724892,-2.754659 -0.533022,-1.127926 -1.576045,-1.540597 -3.059733,-1.196655 -1.483683,0.343948 -3.397454,1.54526 -3.397454,1.54526 z"
         id="path22"
         style="fill:#31424a;stroke:#192b33;stroke-width:0.15549px;stroke-miterlimit:10" />
      <path
         class="cls-3"
         d="m 59.484066,48.329798 c 0,0 1.975034,-1.486483 3.067196,-1.648192 0.926097,-0.13714 1.461603,0.03108 1.679291,0.102315 0.974299,0.31098 1.394434,1.158089 0.252828,2.779846 -0.354208,0.503166 -2.128968,1.393193 -2.91606,1.785026 -3.14525,1.565784 -2.833958,0.611386 -6.596505,2.576468 -1.02126,0.53364 -4.125153,1.732779 -6.62574,1.99649 -3.690397,0.38935 -6.237633,0.217688 -6.237633,0.217688 0,0 5.473244,-0.334925 7.105891,-1.119527 1.632642,-0.784602 6.07064,-2.794155 7.03063,-3.647485 0.959997,-0.853326 3.240102,-3.042629 3.240102,-3.042629 z"
         id="path24"
         style="fill:#192b33;stroke-width:0.031098" />
      <path
         class="cls-4"
         d="m 41.864874,53.285885 c 0,0 -2.094451,0.324353 -4.206625,1.060134 -2.112175,0.735776 -2.016081,1.79249 -2.016081,1.79249 0,0 -0.02331,0.703124 1.024057,1.664051 0.972122,0.89158 4.465981,3.412075 10.048694,2.36811 3.943849,-0.737641 6.81575,-2.923212 6.81575,-2.923212 2.756836,-2.191787 4.785666,-4.506096 7.032496,-5.465469 1.550857,-0.662386 3.006244,-1.279682 3.769703,-2.030078 0.50814,-0.499123 1.276879,-1.587864 0.724892,-2.754659 -0.533022,-1.127926 -1.576045,-1.540597 -3.059733,-1.196655 -1.483683,0.343948 -3.397454,1.54526 -3.397454,1.54526 z"
         id="path26"
         style="fill:none;stroke:#ffffff;stroke-width:0.15549px;stroke-miterlimit:10" />
      <path
         class="cls-3"
         d="m 43.400497,43.072993 c -0.680427,0.445016 -1.165864,1.337214 -1.374844,1.882674 -0.0622,0.164822 -0.149584,0.513426 0.209287,0.675141 0.358876,0.161708 4.288103,-0.878213 5.373113,-1.523804 1.861218,-1.105224 2.777361,-2.781718 3.205272,-3.292966 1.07319,-1.281547 2.320843,-1.628915 2.320843,-1.628915 0,0 -0.581843,0.01055 -1.402211,0.367887 -0.351718,0.153314 -0.746352,0.409251 -1.159023,0.691311 -1.500165,1.029031 -1.318866,1.523804 -2.258025,1.980009 -0.932937,0.452786 -2.434037,0.323423 -2.934402,0.353896 -1.271912,0.07744 -1.544641,0.208982 -1.98001,0.494767 z"
         id="path28"
         style="fill:#192b33;stroke-width:0.031098" />
      <path
         class="cls-3"
         d="m 52.721185,39.458789 c -0.25656,0.185029 -0.765942,0.595522 -1.798087,2.324882 -0.253447,0.424177 -1.173945,2.003954 -2.790735,3.023973 -1.32477,0.835601 -3.376616,1.156534 -3.718386,1.32726 -0.471758,0.235411 -0.835914,0.499747 -0.602987,2.186501 0.23292,1.686754 0.639681,3.81106 0.639681,3.81106 0,0 5.24903,0.02893 6.012801,-0.203695 0.763765,-0.232615 6.374467,-0.698151 6.913393,-1.071324 0.538932,-0.37318 2.107201,-1.515098 2.107201,-1.515098 0,0 -0.146782,-2.714855 -2.250874,-6.449723 C 56.89609,42.293989 56.54904,41.68727 56.094388,41.133723 55.575669,40.501811 54.931632,39.939564 54.295988,39.500458 53.563009,38.99387 53.155,39.146249 52.721185,39.458768 Z"
         id="path30"
         style="fill:#192b33;stroke-width:0.031098" />
      <path
         class="cls-5"
         d="m 41.335589,52.066533 0.771229,4.071664 c 0,0 3.197808,-0.08739 4.776655,-0.406455 2.425643,-0.489481 4.400673,-1.354938 5.765565,-2.044381 2.202669,-1.112682 4.820189,-2.987586 4.820189,-2.987586 0,0 -4.803396,0.929212 -5.989786,1.055779 -1.186389,0.126572 -5.269243,0.356698 -7.028145,0.375975 -0.779628,0.0084 -3.115707,-0.065 -3.115707,-0.065 z"
         id="path32"
         style="fill:#ffffff;stroke-width:0.031098" />
    </g>
  </g>
  <path
     id="Rectangle_4668"
     d="M0 0h100v100H0z"
     class="cls-3"
     data-name="Rectangle 4668" />
</svg>
