<?xml version="1.0" encoding="UTF-8" standalone="no"?>
<svg
   xmlns:dc="http://purl.org/dc/elements/1.1/"
   xmlns:cc="http://creativecommons.org/ns#"
   xmlns:rdf="http://www.w3.org/1999/02/22-rdf-syntax-ns#"
   xmlns:svg="http://www.w3.org/2000/svg"
   xmlns="http://www.w3.org/2000/svg"
   xmlns:sodipodi="http://sodipodi.sourceforge.net/DTD/sodipodi-0.dtd"
   xmlns:inkscape="http://www.inkscape.org/namespaces/inkscape"
   width="49"
   height="60"
   viewBox="0 0 49 60"
   version="1.1"
   id="svg11"
   sodipodi:docname="img-nav-logo.svg"
   inkscape:version="1.0.2 (e86c870879, 2021-01-15)">
  <metadata
     id="metadata15">
    <rdf:RDF>
      <cc:Work
         rdf:about="">
        <dc:format>image/svg+xml</dc:format>
        <dc:type
           rdf:resource="http://purl.org/dc/dcmitype/StillImage" />
        <dc:title></dc:title>
      </cc:Work>
    </rdf:RDF>
  </metadata>
  <sodipodi:namedview
     pagecolor="#ffffff"
     bordercolor="#666666"
     borderopacity="1"
     objecttolerance="10"
     gridtolerance="10"
     guidetolerance="10"
     inkscape:pageopacity="0"
     inkscape:pageshadow="2"
     inkscape:window-width="1920"
     inkscape:window-height="1019"
     id="namedview13"
     showgrid="false"
     inkscape:zoom="14.216667"
     inkscape:cx="18.369348"
     inkscape:cy="30.716732"
     inkscape:window-x="1920"
     inkscape:window-y="0"
     inkscape:window-maximized="1"
     inkscape:current-layer="svg11"
     inkscape:document-rotation="0" />
  <defs
     id="defs4">
    <style
       type="text/css"
       id="style2">
            .cls-1{fill:#fff}
        </style>
  </defs>
  <g
     id="ic_blkc"
     transform="translate(-4271 -3.715)" />
  <path
     class="cls-1"
     d="m 19.066872,17.319159 c 0,0 -2.230583,0.09975 -4.392404,0 -2.057921,-0.09626 -3.064794,0.289263 -3.854335,0.837369 -0.638452,0.442375 -1.6307744,1.272762 -1.9991919,2.981915 -0.3684156,1.709154 0.2057939,5.354385 0.2057939,5.354385 l 0.8417413,6.084522 1.2447867,6.529892 c 0,0 7.283027,0.102739 13.997867,-2.56597 6.714837,-2.668713 14.049561,-8.332809 14.049561,-8.332809 0,0 -0.02407,-0.207971 -0.126981,-1.080255 -0.102892,-0.872282 -0.803091,-3.776894 -2.04236,-6.291496 -1.239266,-2.514604 -2.558345,-5.377824 -4.752287,-7.236598 -2.373631,-2.012879 -2.495601,-1.971983 -5.105646,-1.264783 -0.418107,0.113212 -0.708222,0.171066 -2.940815,1.866254 -0.587763,0.446864 -2.542283,2.372964 -2.542283,2.372964 0,0 -0.752397,0.615439 -2.583441,0.74461 z"
     id="path21"
     style="fill:#31424a;stroke-width:0.050033" />
  <path
     class="cls-2"
     d="m 10.722763,34.533377 c 0,0 -3.3805086,0.520178 -6.7896289,1.700179 -3.40911905,1.179995 -3.25402129,2.874685 -3.25402129,2.874685 0,0 -0.0376516,1.127632 1.65286079,2.668713 1.569039,1.429863 7.2082357,5.472083 16.2189144,3.797841 6.365495,-1.182989 11.00083,-4.688074 11.00083,-4.688074 4.44962,-3.515062 7.724225,-7.226623 11.350679,-8.765209 2.503133,-1.062299 4.852172,-2.052282 6.084411,-3.25572 0.820158,-0.800465 2.060931,-2.546525 1.170003,-4.417763 -0.860311,-1.808903 -2.543787,-2.470719 -4.938504,-1.919125 -2.394716,0.551602 -5.483602,2.478199 -5.483602,2.478199 z"
     id="path23"
     style="fill:#31424a;stroke:#192b33;stroke-width:0.250164px;stroke-miterlimit:10" />
  <path
     class="cls-3"
     d="m 39.160691,26.585091 c 0,0 3.187769,-2.383935 4.950554,-2.643275 1.49475,-0.219941 2.359074,0.04986 2.710428,0.164079 1.572552,0.498732 2.25066,1.857276 0.408069,4.458164 -0.571697,0.806944 -3.436219,2.234317 -4.706609,2.862717 -5.076536,2.511116 -4.574103,0.980509 -10.646969,4.131991 -1.648343,0.855825 -6.658122,2.778936 -10.694153,3.201858 -5.956422,0.624413 -10.067742,0.349114 -10.067742,0.349114 0,0 8.833995,-0.537135 11.469131,-1.795434 2.635142,-1.258302 9.798206,-4.481105 11.347669,-5.849626 1.549464,-1.368516 5.229622,-4.879588 5.229622,-4.879588 z"
     id="path25"
     style="fill:#192b33;stroke-width:0.050033" />
  <path
     class="cls-4"
     d="m 10.722763,34.533377 c 0,0 -3.3805086,0.520178 -6.7896289,1.700179 -3.40911905,1.179995 -3.25402129,2.874685 -3.25402129,2.874685 0,0 -0.0376516,1.127632 1.65286079,2.668713 1.569039,1.429863 7.2082357,5.472083 16.2189144,3.797841 6.365495,-1.182989 11.00083,-4.688074 11.00083,-4.688074 4.44962,-3.515062 7.724225,-7.226623 11.350679,-8.765209 2.503133,-1.062299 4.852172,-2.052282 6.084411,-3.25572 0.820158,-0.800465 2.060931,-2.546525 1.170003,-4.417763 -0.860311,-1.808903 -2.543787,-2.470719 -4.938504,-1.919125 -2.394716,0.551602 -5.483602,2.478199 -5.483602,2.478199 z"
     id="path27"
     style="fill:none;stroke:#ffffff;stroke-width:0.250164px;stroke-miterlimit:10" />
  <path
     class="cls-3"
     d="m 13.201298,18.154533 c -1.098225,0.713684 -1.881742,2.144543 -2.219038,3.019319 -0.10039,0.264331 -0.241428,0.823406 0.3378,1.082747 0.579229,0.259341 6.921136,-1.408416 8.672372,-2.443785 3.004059,-1.772491 4.482749,-4.461154 5.173407,-5.281068 1.732165,-2.055272 3.745915,-2.612355 3.745915,-2.612355 0,0 -0.939114,0.01695 -2.263207,0.589998 -0.567687,0.245877 -1.204637,0.656333 -1.870701,1.108681 -2.421316,1.650301 -2.128688,2.443784 -3.644526,3.175425 -1.505793,0.726153 -3.928615,0.518679 -4.736223,0.567555 -2.052901,0.124188 -2.493094,0.335147 -3.195799,0.793483 z"
     id="path29"
     style="fill:#192b33;stroke-width:0.050033" />
  <path
     class="cls-3"
     d="m 28.24519,12.358272 c -0.414094,0.296748 -1.236256,0.955074 -2.902169,3.728519 -0.409072,0.68027 -1.894789,3.213826 -4.504334,4.849667 -2.138224,1.340092 -5.44997,1.854783 -6.001591,2.128586 -0.761431,0.377538 -1.349195,0.801462 -0.973247,3.506583 0.375948,2.705119 1.032472,6.111954 1.032472,6.111954 0,0 8.472105,0.04638 9.704846,-0.326667 1.232744,-0.373054 10.288591,-1.119656 11.158438,-1.718133 0.869848,-0.598477 3.401086,-2.42982 3.401086,-2.42982 0,0 -0.236911,-4.353927 -3.632975,-10.343693 -0.544095,-0.960057 -1.104251,-1.933084 -1.838074,-2.820828 -0.837223,-1.013422 -1.876724,-1.915127 -2.902672,-2.619336 -1.183052,-0.812436 -1.841586,-0.568057 -2.54178,-0.06683 z"
     id="path31"
     style="fill:#192b33;stroke-width:0.050033" />
  <path
     class="cls-5"
     d="m 9.8684763,32.577851 1.2447867,6.529894 c 0,0 5.161364,-0.140147 7.70967,-0.651844 3.915065,-0.785005 7.102833,-2.172974 9.305809,-3.278661 3.555182,-1.784464 7.779939,-4.791315 7.779939,-4.791315 0,0 -7.752837,1.490208 -9.667706,1.693195 -1.914866,0.202981 -8.504723,0.572045 -11.343649,0.602965 -1.258341,0.0134 -5.0288497,-0.104233 -5.0288497,-0.104234 z"
     id="path33"
     style="fill:#ffffff;stroke-width:0.050033" />
  <path
     class="cls-4"
     d="m 19.066872,17.319159 c 0,0 -2.230583,0.09975 -4.392404,0 -2.057921,-0.09626 -3.064794,0.289263 -3.854335,0.837369 -0.638452,0.442375 -1.6307744,1.272762 -1.9991919,2.981915 -0.3684156,1.709154 0.2057939,5.354385 0.2057939,5.354385 l 0.8417413,6.084522 1.2447867,6.529892 c 0,0 7.283027,0.102739 13.997867,-2.56597 6.714837,-2.668713 14.049561,-8.332809 14.049561,-8.332809 0,0 -0.02407,-0.207971 -0.126981,-1.080255 -0.102892,-0.872282 -0.803091,-3.776894 -2.04236,-6.291496 -1.239266,-2.514604 -2.558345,-5.377824 -4.752287,-7.236598 -2.373631,-2.012879 -3.16267,-1.826854 -4.560045,-1.445822 -3.107458,0.847846 -5.367157,3.971402 -6.028699,4.420257 -0.661546,0.44886 -0.752397,0.615439 -2.583441,0.74461 z"
     id="path35"
     style="fill:none;stroke:#ffffff;stroke-width:0.250164px;stroke-miterlimit:10" />
</svg>
