<?xml version="1.0" encoding="UTF-8" standalone="no"?>
<svg
   xmlns:dc="http://purl.org/dc/elements/1.1/"
   xmlns:cc="http://creativecommons.org/ns#"
   xmlns:rdf="http://www.w3.org/1999/02/22-rdf-syntax-ns#"
   xmlns:svg="http://www.w3.org/2000/svg"
   xmlns="http://www.w3.org/2000/svg"
   xmlns:sodipodi="http://sodipodi.sourceforge.net/DTD/sodipodi-0.dtd"
   xmlns:inkscape="http://www.inkscape.org/namespaces/inkscape"
   width="300px"
   height="100px"
   viewBox="0 0 300 100"
   version="1.1"
   id="svg27"
   sodipodi:docname="img-logo-pivx.svg"
   inkscape:version="1.0.2 (e86c870879, 2021-01-15)">
  <metadata
     id="metadata33">
    <rdf:RDF>
      <cc:Work
         rdf:about="">
        <dc:format>image/svg+xml</dc:format>
        <dc:type
           rdf:resource="http://purl.org/dc/dcmitype/StillImage" />
        <dc:title>Artboard</dc:title>
      </cc:Work>
    </rdf:RDF>
  </metadata>
  <defs
     id="defs31" />
  <sodipodi:namedview
     pagecolor="#ffffff"
     bordercolor="#666666"
     borderopacity="1"
     objecttolerance="10"
     gridtolerance="10"
     guidetolerance="10"
     inkscape:pageopacity="0"
     inkscape:pageshadow="2"
     inkscape:window-width="1920"
     inkscape:window-height="1019"
     id="namedview29"
     showgrid="false"
     inkscape:zoom="3.5614612"
     inkscape:cx="128.58806"
     inkscape:cy="92.751342"
     inkscape:window-x="1920"
     inkscape:window-y="0"
     inkscape:window-maximized="1"
     inkscape:current-layer="svg27"
     inkscape:document-rotation="0" />
  <!-- Generator: Sketch 53.2 (72643) - https://sketchapp.com -->
  <title
     id="title2">Artboard</title>
  <desc
     id="desc4">Created with Sketch.</desc>
  <path
     class="cls-1"
     d="m 50.558431,20.344144 c 0,0 -5.517953,0.24834 -10.865794,0 -5.090822,-0.23963 -7.581598,0.72017 -9.534734,2.08476 -1.579397,1.10136 -4.034163,3.16873 -4.945542,7.42391 -0.91138,4.25518 0.509081,13.33049 0.509081,13.33049 l 2.082274,15.14829 3.079321,16.25711 c 0,0 18.016535,0.25577 34.627503,-6.38836 16.610977,-6.64415 34.75541,-20.74572 34.75541,-20.74572 0,0 -0.0596,-0.51777 -0.314152,-2.68944 -0.25454,-2.17167 -1.98666,-9.40312 -5.052321,-15.66358 -3.06567,-6.26047 -6.32876,-13.38886 -11.75607,-18.01653 -5.87183,-5.0113599 -6.17355,-4.9095399 -12.630199,-3.1488699 -1.034305,0.28186 -1.751987,0.42589 -7.274905,4.6463099 -1.453993,1.11253 -6.289027,5.90783 -6.289027,5.90783 0,0 -1.861256,1.53222 -6.390845,1.8538 z"
     id="path545"
     style="fill:#31424a;stroke-width:0.124167" />
  <path
     class="cls-2"
     d="m 29.917026,63.201394 c 0,0 -8.362601,1.29506 -16.795984,4.23284 -8.4333734,2.93777 -8.0497034,7.15694 -8.0497034,7.15694 0,0 -0.09312,2.8074 4.0888006,6.64414 3.8814398,3.55985 17.8315278,13.62354 40.1218628,9.45527 15.746776,-2.94522 27.213545,-11.67164 27.213545,-11.67164 11.00733,-8.75124 19.107951,-17.9917 28.078973,-21.82223 6.19217,-2.64474 12.00315,-5.10944 15.05144,-8.10558 2.02888,-1.99286 5.09827,-6.33993 2.89432,-10.99865 -2.12821,-4.50351 -6.29275,-6.1512 -12.21673,-4.77792 -5.92398,1.37328 -13.565172,6.16983 -13.565172,6.16983 z"
     id="path547"
     style="fill:#31424a;stroke:#192b33;stroke-width:0.620832px;stroke-miterlimit:10" />
  <path
     class="cls-3"
     d="m 100.26595,43.413004 c 0,0 7.8858,-5.93514 12.24652,-6.5808 3.69767,-0.54758 5.83582,0.12416 6.70498,0.4085 3.89013,1.24167 5.56762,4.62395 1.00948,11.09923 -1.41426,2.00901 -8.50043,5.56265 -11.64308,7.12714 -12.558192,6.25178 -11.315282,2.44111 -26.338173,10.28718 -4.07762,2.1307 -16.470658,6.91856 -26.45487,7.97148 -14.734826,1.55457 -24.905284,0.86917 -24.905284,0.86917 0,0 21.853274,-1.33727 28.372,-4.46999 6.518735,-3.13272 24.238514,-11.15634 28.071524,-14.56347 3.83302,-3.40712 12.936903,-12.14844 12.936903,-12.14844 z"
     id="path549"
     style="fill:#192b33;stroke-width:0.124167" />
  <path
     class="cls-4"
     d="m 29.917026,63.201394 c 0,0 -8.362601,1.29506 -16.795984,4.23284 -8.4333734,2.93777 -8.0497034,7.15694 -8.0497034,7.15694 0,0 -0.09312,2.8074 4.0888006,6.64414 3.8814398,3.55985 17.8315278,13.62354 40.1218628,9.45527 15.746776,-2.94522 27.213545,-11.67164 27.213545,-11.67164 11.00733,-8.75124 19.107951,-17.9917 28.078973,-21.82223 6.19217,-2.64474 12.00315,-5.10944 15.05144,-8.10558 2.02888,-1.99286 5.09827,-6.33993 2.89432,-10.99865 -2.12821,-4.50351 -6.29275,-6.1512 -12.21673,-4.77792 -5.92398,1.37328 -13.565172,6.16983 -13.565172,6.16983 z"
     id="path551"
     style="fill:none;stroke:#ffffff;stroke-width:0.620832px;stroke-miterlimit:10" />
  <path
     class="cls-3"
     d="m 36.048357,22.423934 c -2.716758,1.77682 -4.655,5.33915 -5.489395,7.51703 -0.248328,0.65808 -0.597235,2.04999 0.835643,2.69565 1.432877,0.64566 17.121297,-3.50646 21.453453,-6.08415 7.431354,-4.41287 11.089298,-11.10668 12.797823,-13.14797 4.284987,-5.1168899 9.266539,-6.5038299 9.266539,-6.5038299 0,0 -2.32315,0.0422 -5.598664,1.46889 -1.404319,0.61214 -2.97999,1.6340199 -4.627681,2.7602099 -5.989777,4.10867 -5.265891,6.08415 -9.015715,7.90567 -3.724991,1.80787 -9.718493,1.29133 -11.716331,1.41302 -5.078405,0.30917 -6.16734,0.83439 -7.905672,1.97548 z"
     id="path553"
     style="fill:#192b33;stroke-width:0.124167" />
  <path
     class="cls-3"
     d="m 73.26349,7.9933241 c -1.024375,0.73879 -3.058214,2.3777899 -7.1793,9.2826699 -1.01195,1.69363 -4.687276,8.00128 -11.14268,12.07394 -5.289494,3.33635 -13.481983,4.61774 -14.846574,5.29942 -1.883603,0.93994 -3.337587,1.99535 -2.407587,8.73013 0.930008,6.73479 2.554106,15.21659 2.554106,15.21659 0,0 20.958036,0.11547 24.007559,-0.81329 3.049523,-0.92877 25.451613,-2.78754 27.603413,-4.27753 2.15181,-1.49 8.413523,-6.04938 8.413523,-6.04938 0,0 -0.586072,-10.83973 -8.987163,-25.7521 -1.34596,-2.3902 -2.73166,-4.81269 -4.54698,-7.02285 -2.07109,-2.52306 -4.64257,-4.7679899 -7.18054,-6.5212099 -2.9266,-2.02267 -4.555658,-1.41426 -6.287777,-0.16639 z"
     id="path555"
     style="fill:#192b33;stroke-width:0.124167" />
  <path
     class="cls-5"
     d="m 27.803716,58.332844 3.079321,16.25709 c 0,0 12.768025,-0.3489 19.071946,-1.62285 9.68498,-1.95438 17.570784,-5.40993 23.020443,-8.1627 8.794701,-4.44267 19.245781,-11.92865 19.245781,-11.92865 0,0 -19.178734,3.71009 -23.915676,4.21544 -4.73695,0.50536 -21.038747,1.42419 -28.061598,1.50117 -3.112845,0.0335 -12.440217,-0.2595 -12.440217,-0.2595 z"
     id="path557"
     style="fill:#ffffff;stroke-width:0.124167" />
  <path
     class="cls-4"
     d="m 50.558431,20.344144 c 0,0 -5.517953,0.24834 -10.865794,0 -5.090822,-0.23963 -7.581598,0.72017 -9.534734,2.08476 -1.579397,1.10136 -4.034163,3.16873 -4.945542,7.42391 -0.91138,4.25518 0.509081,13.33049 0.509081,13.33049 l 2.082274,15.14829 3.079321,16.25711 c 0,0 18.016535,0.25577 34.627503,-6.38836 16.610977,-6.64415 34.75541,-20.74572 34.75541,-20.74572 0,0 -0.0596,-0.51777 -0.314152,-2.68944 -0.25454,-2.17167 -1.98666,-9.40312 -5.052321,-15.66358 -3.06567,-6.26047 -6.32876,-13.38886 -11.75607,-18.01653 -5.87183,-5.0113599 -7.823724,-4.5482199 -11.28051,-3.5995899 -7.687142,2.11083 -13.277107,9.8873699 -14.913621,11.0048599 -1.636513,1.1175 -1.861256,1.53222 -6.390845,1.8538 z"
     id="path559"
     style="fill:none;stroke:#ffffff;stroke-width:0.620832px;stroke-miterlimit:10" />
  <text
     xml:space="preserve"
     style="font-style:normal;font-weight:normal;font-size:34.6667px;line-height:1.25;font-family:sans-serif;fill:#000000;fill-opacity:1;stroke:none"
     x="98.835838"
     y="92.6586"
     id="text675"><tspan
       sodipodi:role="line"
       id="tspan673"
       x="98.835838"
       y="92.6586"
       style="font-style:normal;font-variant:normal;font-weight:bold;font-stretch:normal;font-size:34.6667px;font-family:Comfortaa;-inkscape-font-specification:'Comfortaa Bold';fill:#ffffff">BLACKHAT</tspan></text>
</svg>
